0
SECTION
2
HEADER
9
$INSUNITS
70
4
0
ENDSEC
0
SECTION
2
TABLES
0
TABLE
2
LTYPE
0
LTYPE
72
65
70
64
2
CONTINUOUS
3
______
73
0
40
0
0
ENDTAB
0
TABLE
2
LAYER
0
ENDTAB
0
ENDSEC
0
SECTION
2
ENTITIES
0
LINE
8
0
10
69.7
20
-26.3375
11
82.7
21
-26.3375
0
LINE
8
0
10
69.7
20
-40.3375
11
82.7
21
-40.3375
0
LINE
8
0
10
69.2
20
-26.8375
11
69.2
21
-39.8375
0
LINE
8
0
10
83.2
20
-26.8375
11
83.2
21
-39.8375
0
ARC
8
0
10
69.7
20
-26.8375
40
0.5
50
90
51
180
0
ARC
8
0
10
82.7
20
-26.8375
40
0.5
50
0
51
90
0
ARC
8
0
10
69.7
20
-39.8375
40
0.5
50
180
51
270
0
ARC
8
0
10
82.7
20
-39.8375
40
0.5
50
270
51
0
0
LINE
8
0
10
288.775
20
-26.3375
11
301.775
21
-26.3375
0
LINE
8
0
10
288.775
20
-40.3375
11
301.775
21
-40.3375
0
LINE
8
0
10
288.275
20
-26.8375
11
288.275
21
-39.8375
0
LINE
8
0
10
302.275
20
-26.8375
11
302.275
21
-39.8375
0
ARC
8
0
10
288.775
20
-26.8375
40
0.5
50
90
51
180
0
ARC
8
0
10
301.775
20
-26.8375
40
0.5
50
0
51
90
0
ARC
8
0
10
288.775
20
-39.8375
40
0.5
50
180
51
270
0
ARC
8
0
10
301.775
20
-39.8375
40
0.5
50
270
51
0
0
LINE
8
0
10
50.65
20
-28.814
11
63.65
21
-28.814
0
LINE
8
0
10
50.65
20
-42.814
11
63.65
21
-42.814
0
LINE
8
0
10
50.15
20
-29.314
11
50.15
21
-42.314
0
LINE
8
0
10
64.15
20
-29.314
11
64.15
21
-42.314
0
ARC
8
0
10
50.65
20
-29.314
40
0.5
50
90
51
180
0
ARC
8
0
10
63.65
20
-29.314
40
0.5
50
0
51
90
0
ARC
8
0
10
50.65
20
-42.314
40
0.5
50
180
51
270
0
ARC
8
0
10
63.65
20
-42.314
40
0.5
50
270
51
0
0
LINE
8
0
10
88.75
20
-28.814
11
101.75
21
-28.814
0
LINE
8
0
10
88.75
20
-42.814
11
101.75
21
-42.814
0
LINE
8
0
10
88.25
20
-29.314
11
88.25
21
-42.314
0
LINE
8
0
10
102.25
20
-29.314
11
102.25
21
-42.314
0
ARC
8
0
10
88.75
20
-29.314
40
0.5
50
90
51
180
0
ARC
8
0
10
101.75
20
-29.314
40
0.5
50
0
51
90
0
ARC
8
0
10
88.75
20
-42.314
40
0.5
50
180
51
270
0
ARC
8
0
10
101.75
20
-42.314
40
0.5
50
270
51
0
0
LINE
8
0
10
269.725
20
-28.814
11
282.725
21
-28.814
0
LINE
8
0
10
269.725
20
-42.814
11
282.725
21
-42.814
0
LINE
8
0
10
269.225
20
-29.314
11
269.225
21
-42.314
0
LINE
8
0
10
283.225
20
-29.314
11
283.225
21
-42.314
0
ARC
8
0
10
269.725
20
-29.314
40
0.5
50
90
51
180
0
ARC
8
0
10
282.725
20
-29.314
40
0.5
50
0
51
90
0
ARC
8
0
10
269.725
20
-42.314
40
0.5
50
180
51
270
0
ARC
8
0
10
282.725
20
-42.314
40
0.5
50
270
51
0
0
LINE
8
0
10
307.825
20
-28.814
11
320.825
21
-28.814
0
LINE
8
0
10
307.825
20
-42.814
11
320.825
21
-42.814
0
LINE
8
0
10
307.325
20
-29.314
11
307.325
21
-42.314
0
LINE
8
0
10
321.325
20
-29.314
11
321.325
21
-42.314
0
ARC
8
0
10
307.825
20
-29.314
40
0.5
50
90
51
180
0
ARC
8
0
10
320.825
20
-29.314
40
0.5
50
0
51
90
0
ARC
8
0
10
307.825
20
-42.314
40
0.5
50
180
51
270
0
ARC
8
0
10
320.825
20
-42.314
40
0.5
50
270
51
0
0
LINE
8
0
10
107.8
20
-31.1
11
120.8
21
-31.1
0
LINE
8
0
10
107.8
20
-45.1
11
120.8
21
-45.1
0
LINE
8
0
10
107.3
20
-31.6
11
107.3
21
-44.6
0
LINE
8
0
10
121.3
20
-31.6
11
121.3
21
-44.6
0
ARC
8
0
10
107.8
20
-31.6
40
0.5
50
90
51
180
0
ARC
8
0
10
120.8
20
-31.6
40
0.5
50
0
51
90
0
ARC
8
0
10
107.8
20
-44.6
40
0.5
50
180
51
270
0
ARC
8
0
10
120.8
20
-44.6
40
0.5
50
270
51
0
0
LINE
8
0
10
126.85
20
-31.1
11
139.85
21
-31.1
0
LINE
8
0
10
126.85
20
-45.1
11
139.85
21
-45.1
0
LINE
8
0
10
126.35
20
-31.6
11
126.35
21
-44.6
0
LINE
8
0
10
140.35
20
-31.6
11
140.35
21
-44.6
0
ARC
8
0
10
126.85
20
-31.6
40
0.5
50
90
51
180
0
ARC
8
0
10
139.85
20
-31.6
40
0.5
50
0
51
90
0
ARC
8
0
10
126.85
20
-44.6
40
0.5
50
180
51
270
0
ARC
8
0
10
139.85
20
-44.6
40
0.5
50
270
51
0
0
LINE
8
0
10
231.625
20
-31.1
11
244.625
21
-31.1
0
LINE
8
0
10
231.625
20
-45.1
11
244.625
21
-45.1
0
LINE
8
0
10
231.125
20
-31.6
11
231.125
21
-44.6
0
LINE
8
0
10
245.125
20
-31.6
11
245.125
21
-44.6
0
ARC
8
0
10
231.625
20
-31.6
40
0.5
50
90
51
180
0
ARC
8
0
10
244.625
20
-31.6
40
0.5
50
0
51
90
0
ARC
8
0
10
231.625
20
-44.6
40
0.5
50
180
51
270
0
ARC
8
0
10
244.625
20
-44.6
40
0.5
50
270
51
0
0
LINE
8
0
10
250.675
20
-31.1
11
263.675
21
-31.1
0
LINE
8
0
10
250.675
20
-45.1
11
263.675
21
-45.1
0
LINE
8
0
10
250.175
20
-31.6
11
250.175
21
-44.6
0
LINE
8
0
10
264.175
20
-31.6
11
264.175
21
-44.6
0
ARC
8
0
10
250.675
20
-31.6
40
0.5
50
90
51
180
0
ARC
8
0
10
263.675
20
-31.6
40
0.5
50
0
51
90
0
ARC
8
0
10
250.675
20
-44.6
40
0.5
50
180
51
270
0
ARC
8
0
10
263.675
20
-44.6
40
0.5
50
270
51
0
0
LINE
8
0
10
7.7875
20
-33.5765
11
20.7875
21
-33.5765
0
LINE
8
0
10
7.7875
20
-47.5765
11
20.7875
21
-47.5765
0
LINE
8
0
10
7.2875
20
-34.0765
11
7.2875
21
-47.0765
0
LINE
8
0
10
21.2875
20
-34.0765
11
21.2875
21
-47.0765
0
ARC
8
0
10
7.7875
20
-34.0765
40
0.5
50
90
51
180
0
ARC
8
0
10
20.7875
20
-34.0765
40
0.5
50
0
51
90
0
ARC
8
0
10
7.7875
20
-47.0765
40
0.5
50
180
51
270
0
ARC
8
0
10
20.7875
20
-47.0765
40
0.5
50
270
51
0
0
LINE
8
0
10
31.6
20
-33.5765
11
44.6
21
-33.5765
0
LINE
8
0
10
31.6
20
-47.5765
11
44.6
21
-47.5765
0
LINE
8
0
10
31.1
20
-34.0765
11
31.1
21
-47.0765
0
LINE
8
0
10
45.1
20
-34.0765
11
45.1
21
-47.0765
0
ARC
8
0
10
31.6
20
-34.0765
40
0.5
50
90
51
180
0
ARC
8
0
10
44.6
20
-34.0765
40
0.5
50
0
51
90
0
ARC
8
0
10
31.6
20
-47.0765
40
0.5
50
180
51
270
0
ARC
8
0
10
44.6
20
-47.0765
40
0.5
50
270
51
0
0
LINE
8
0
10
326.875
20
-33.5765
11
339.875
21
-33.5765
0
LINE
8
0
10
326.875
20
-47.5765
11
339.875
21
-47.5765
0
LINE
8
0
10
326.375
20
-34.0765
11
326.375
21
-47.0765
0
LINE
8
0
10
340.375
20
-34.0765
11
340.375
21
-47.0765
0
ARC
8
0
10
326.875
20
-34.0765
40
0.5
50
90
51
180
0
ARC
8
0
10
339.875
20
-34.0765
40
0.5
50
0
51
90
0
ARC
8
0
10
326.875
20
-47.0765
40
0.5
50
180
51
270
0
ARC
8
0
10
339.875
20
-47.0765
40
0.5
50
270
51
0
0
LINE
8
0
10
350.6875
20
-33.5765
11
363.6875
21
-33.5765
0
LINE
8
0
10
350.6875
20
-47.5765
11
363.6875
21
-47.5765
0
LINE
8
0
10
350.1875
20
-34.0765
11
350.1875
21
-47.0765
0
LINE
8
0
10
364.1875
20
-34.0765
11
364.1875
21
-47.0765
0
ARC
8
0
10
350.6875
20
-34.0765
40
0.5
50
90
51
180
0
ARC
8
0
10
363.6875
20
-34.0765
40
0.5
50
0
51
90
0
ARC
8
0
10
350.6875
20
-47.0765
40
0.5
50
180
51
270
0
ARC
8
0
10
363.6875
20
-47.0765
40
0.5
50
270
51
0
0
LINE
8
0
10
69.7
20
-45.3875
11
82.7
21
-45.3875
0
LINE
8
0
10
69.7
20
-59.3875
11
82.7
21
-59.3875
0
LINE
8
0
10
69.2
20
-45.8875
11
69.2
21
-58.8875
0
LINE
8
0
10
83.2
20
-45.8875
11
83.2
21
-58.8875
0
ARC
8
0
10
69.7
20
-45.8875
40
0.5
50
90
51
180
0
ARC
8
0
10
82.7
20
-45.8875
40
0.5
50
0
51
90
0
ARC
8
0
10
69.7
20
-58.8875
40
0.5
50
180
51
270
0
ARC
8
0
10
82.7
20
-58.8875
40
0.5
50
270
51
0
0
LINE
8
0
10
288.775
20
-45.3875
11
301.775
21
-45.3875
0
LINE
8
0
10
288.775
20
-59.3875
11
301.775
21
-59.3875
0
LINE
8
0
10
288.275
20
-45.8875
11
288.275
21
-58.8875
0
LINE
8
0
10
302.275
20
-45.8875
11
302.275
21
-58.8875
0
ARC
8
0
10
288.775
20
-45.8875
40
0.5
50
90
51
180
0
ARC
8
0
10
301.775
20
-45.8875
40
0.5
50
0
51
90
0
ARC
8
0
10
288.775
20
-58.8875
40
0.5
50
180
51
270
0
ARC
8
0
10
301.775
20
-58.8875
40
0.5
50
270
51
0
0
LINE
8
0
10
50.65
20
-47.864
11
63.65
21
-47.864
0
LINE
8
0
10
50.65
20
-61.864
11
63.65
21
-61.864
0
LINE
8
0
10
50.15
20
-48.364
11
50.15
21
-61.364
0
LINE
8
0
10
64.15
20
-48.364
11
64.15
21
-61.364
0
ARC
8
0
10
50.65
20
-48.364
40
0.5
50
90
51
180
0
ARC
8
0
10
63.65
20
-48.364
40
0.5
50
0
51
90
0
ARC
8
0
10
50.65
20
-61.364
40
0.5
50
180
51
270
0
ARC
8
0
10
63.65
20
-61.364
40
0.5
50
270
51
0
0
LINE
8
0
10
88.75
20
-47.864
11
101.75
21
-47.864
0
LINE
8
0
10
88.75
20
-61.864
11
101.75
21
-61.864
0
LINE
8
0
10
88.25
20
-48.364
11
88.25
21
-61.364
0
LINE
8
0
10
102.25
20
-48.364
11
102.25
21
-61.364
0
ARC
8
0
10
88.75
20
-48.364
40
0.5
50
90
51
180
0
ARC
8
0
10
101.75
20
-48.364
40
0.5
50
0
51
90
0
ARC
8
0
10
88.75
20
-61.364
40
0.5
50
180
51
270
0
ARC
8
0
10
101.75
20
-61.364
40
0.5
50
270
51
0
0
LINE
8
0
10
269.725
20
-47.864
11
282.725
21
-47.864
0
LINE
8
0
10
269.725
20
-61.864
11
282.725
21
-61.864
0
LINE
8
0
10
269.225
20
-48.364
11
269.225
21
-61.364
0
LINE
8
0
10
283.225
20
-48.364
11
283.225
21
-61.364
0
ARC
8
0
10
269.725
20
-48.364
40
0.5
50
90
51
180
0
ARC
8
0
10
282.725
20
-48.364
40
0.5
50
0
51
90
0
ARC
8
0
10
269.725
20
-61.364
40
0.5
50
180
51
270
0
ARC
8
0
10
282.725
20
-61.364
40
0.5
50
270
51
0
0
LINE
8
0
10
307.825
20
-47.864
11
320.825
21
-47.864
0
LINE
8
0
10
307.825
20
-61.864
11
320.825
21
-61.864
0
LINE
8
0
10
307.325
20
-48.364
11
307.325
21
-61.364
0
LINE
8
0
10
321.325
20
-48.364
11
321.325
21
-61.364
0
ARC
8
0
10
307.825
20
-48.364
40
0.5
50
90
51
180
0
ARC
8
0
10
320.825
20
-48.364
40
0.5
50
0
51
90
0
ARC
8
0
10
307.825
20
-61.364
40
0.5
50
180
51
270
0
ARC
8
0
10
320.825
20
-61.364
40
0.5
50
270
51
0
0
LINE
8
0
10
107.8
20
-50.15
11
120.8
21
-50.15
0
LINE
8
0
10
107.8
20
-64.15
11
120.8
21
-64.15
0
LINE
8
0
10
107.3
20
-50.65
11
107.3
21
-63.65
0
LINE
8
0
10
121.3
20
-50.65
11
121.3
21
-63.65
0
ARC
8
0
10
107.8
20
-50.65
40
0.5
50
90
51
180
0
ARC
8
0
10
120.8
20
-50.65
40
0.5
50
0
51
90
0
ARC
8
0
10
107.8
20
-63.65
40
0.5
50
180
51
270
0
ARC
8
0
10
120.8
20
-63.65
40
0.5
50
270
51
0
0
LINE
8
0
10
140.35
20
-55.4125
11
140.35
21
-68.4125
0
LINE
8
0
10
126.35
20
-55.4125
11
126.35
21
-68.4125
0
LINE
8
0
10
139.85
20
-54.9125
11
126.85
21
-54.9125
0
LINE
8
0
10
139.85
20
-68.9125
11
126.85
21
-68.9125
0
ARC
8
0
10
139.85
20
-55.4125
40
0.5
50
0
51
90
0
ARC
8
0
10
139.85
20
-68.4125
40
0.5
50
270
51
0
0
ARC
8
0
10
126.85
20
-55.4125
40
0.5
50
90
51
180
0
ARC
8
0
10
126.85
20
-68.4125
40
0.5
50
180
51
270
0
LINE
8
0
10
245.125
20
-55.4125
11
245.125
21
-68.4125
0
LINE
8
0
10
231.125
20
-55.4125
11
231.125
21
-68.4125
0
LINE
8
0
10
244.625
20
-54.9125
11
231.625
21
-54.9125
0
LINE
8
0
10
244.625
20
-68.9125
11
231.625
21
-68.9125
0
ARC
8
0
10
244.625
20
-55.4125
40
0.5
50
0
51
90
0
ARC
8
0
10
244.625
20
-68.4125
40
0.5
50
270
51
0
0
ARC
8
0
10
231.625
20
-55.4125
40
0.5
50
90
51
180
0
ARC
8
0
10
231.625
20
-68.4125
40
0.5
50
180
51
270
0
LINE
8
0
10
250.675
20
-50.15
11
263.675
21
-50.15
0
LINE
8
0
10
250.675
20
-64.15
11
263.675
21
-64.15
0
LINE
8
0
10
250.175
20
-50.65
11
250.175
21
-63.65
0
LINE
8
0
10
264.175
20
-50.65
11
264.175
21
-63.65
0
ARC
8
0
10
250.675
20
-50.65
40
0.5
50
90
51
180
0
ARC
8
0
10
263.675
20
-50.65
40
0.5
50
0
51
90
0
ARC
8
0
10
250.675
20
-63.65
40
0.5
50
180
51
270
0
ARC
8
0
10
263.675
20
-63.65
40
0.5
50
270
51
0
0
LINE
8
0
10
7.7875
20
-52.6265
11
20.7875
21
-52.6265
0
LINE
8
0
10
7.7875
20
-66.6265
11
20.7875
21
-66.6265
0
LINE
8
0
10
7.2875
20
-53.1265
11
7.2875
21
-66.1265
0
LINE
8
0
10
21.2875
20
-53.1265
11
21.2875
21
-66.1265
0
ARC
8
0
10
7.7875
20
-53.1265
40
0.5
50
90
51
180
0
ARC
8
0
10
20.7875
20
-53.1265
40
0.5
50
0
51
90
0
ARC
8
0
10
7.7875
20
-66.1265
40
0.5
50
180
51
270
0
ARC
8
0
10
20.7875
20
-66.1265
40
0.5
50
270
51
0
0
LINE
8
0
10
31.6
20
-52.6265
11
44.6
21
-52.6265
0
LINE
8
0
10
31.6
20
-66.6265
11
44.6
21
-66.6265
0
LINE
8
0
10
31.1
20
-53.1265
11
31.1
21
-66.1265
0
LINE
8
0
10
45.1
20
-53.1265
11
45.1
21
-66.1265
0
ARC
8
0
10
31.6
20
-53.1265
40
0.5
50
90
51
180
0
ARC
8
0
10
44.6
20
-53.1265
40
0.5
50
0
51
90
0
ARC
8
0
10
31.6
20
-66.1265
40
0.5
50
180
51
270
0
ARC
8
0
10
44.6
20
-66.1265
40
0.5
50
270
51
0
0
LINE
8
0
10
326.875
20
-52.6265
11
339.875
21
-52.6265
0
LINE
8
0
10
326.875
20
-66.6265
11
339.875
21
-66.6265
0
LINE
8
0
10
326.375
20
-53.1265
11
326.375
21
-66.1265
0
LINE
8
0
10
340.375
20
-53.1265
11
340.375
21
-66.1265
0
ARC
8
0
10
326.875
20
-53.1265
40
0.5
50
90
51
180
0
ARC
8
0
10
339.875
20
-53.1265
40
0.5
50
0
51
90
0
ARC
8
0
10
326.875
20
-66.1265
40
0.5
50
180
51
270
0
ARC
8
0
10
339.875
20
-66.1265
40
0.5
50
270
51
0
0
LINE
8
0
10
350.6875
20
-52.6265
11
363.6875
21
-52.6265
0
LINE
8
0
10
350.6875
20
-66.6265
11
363.6875
21
-66.6265
0
LINE
8
0
10
350.1875
20
-53.1265
11
350.1875
21
-66.1265
0
LINE
8
0
10
364.1875
20
-53.1265
11
364.1875
21
-66.1265
0
ARC
8
0
10
350.6875
20
-53.1265
40
0.5
50
90
51
180
0
ARC
8
0
10
363.6875
20
-53.1265
40
0.5
50
0
51
90
0
ARC
8
0
10
350.6875
20
-66.1265
40
0.5
50
180
51
270
0
ARC
8
0
10
363.6875
20
-66.1265
40
0.5
50
270
51
0
0
LINE
8
0
10
69.7
20
-64.4375
11
82.7
21
-64.4375
0
LINE
8
0
10
69.7
20
-78.4375
11
82.7
21
-78.4375
0
LINE
8
0
10
69.2
20
-64.9375
11
69.2
21
-77.9375
0
LINE
8
0
10
83.2
20
-64.9375
11
83.2
21
-77.9375
0
ARC
8
0
10
69.7
20
-64.9375
40
0.5
50
90
51
180
0
ARC
8
0
10
82.7
20
-64.9375
40
0.5
50
0
51
90
0
ARC
8
0
10
69.7
20
-77.9375
40
0.5
50
180
51
270
0
ARC
8
0
10
82.7
20
-77.9375
40
0.5
50
270
51
0
0
LINE
8
0
10
288.775
20
-64.4375
11
301.775
21
-64.4375
0
LINE
8
0
10
288.775
20
-78.4375
11
301.775
21
-78.4375
0
LINE
8
0
10
288.275
20
-64.9375
11
288.275
21
-77.9375
0
LINE
8
0
10
302.275
20
-64.9375
11
302.275
21
-77.9375
0
ARC
8
0
10
288.775
20
-64.9375
40
0.5
50
90
51
180
0
ARC
8
0
10
301.775
20
-64.9375
40
0.5
50
0
51
90
0
ARC
8
0
10
288.775
20
-77.9375
40
0.5
50
180
51
270
0
ARC
8
0
10
301.775
20
-77.9375
40
0.5
50
270
51
0
0
LINE
8
0
10
50.65
20
-66.914
11
63.65
21
-66.914
0
LINE
8
0
10
50.65
20
-80.914
11
63.65
21
-80.914
0
LINE
8
0
10
50.15
20
-67.414
11
50.15
21
-80.414
0
LINE
8
0
10
64.15
20
-67.414
11
64.15
21
-80.414
0
ARC
8
0
10
50.65
20
-67.414
40
0.5
50
90
51
180
0
ARC
8
0
10
63.65
20
-67.414
40
0.5
50
0
51
90
0
ARC
8
0
10
50.65
20
-80.414
40
0.5
50
180
51
270
0
ARC
8
0
10
63.65
20
-80.414
40
0.5
50
270
51
0
0
LINE
8
0
10
88.75
20
-66.914
11
101.75
21
-66.914
0
LINE
8
0
10
88.75
20
-80.914
11
101.75
21
-80.914
0
LINE
8
0
10
88.25
20
-67.414
11
88.25
21
-80.414
0
LINE
8
0
10
102.25
20
-67.414
11
102.25
21
-80.414
0
ARC
8
0
10
88.75
20
-67.414
40
0.5
50
90
51
180
0
ARC
8
0
10
101.75
20
-67.414
40
0.5
50
0
51
90
0
ARC
8
0
10
88.75
20
-80.414
40
0.5
50
180
51
270
0
ARC
8
0
10
101.75
20
-80.414
40
0.5
50
270
51
0
0
LINE
8
0
10
269.725
20
-66.914
11
282.725
21
-66.914
0
LINE
8
0
10
269.725
20
-80.914
11
282.725
21
-80.914
0
LINE
8
0
10
269.225
20
-67.414
11
269.225
21
-80.414
0
LINE
8
0
10
283.225
20
-67.414
11
283.225
21
-80.414
0
ARC
8
0
10
269.725
20
-67.414
40
0.5
50
90
51
180
0
ARC
8
0
10
282.725
20
-67.414
40
0.5
50
0
51
90
0
ARC
8
0
10
269.725
20
-80.414
40
0.5
50
180
51
270
0
ARC
8
0
10
282.725
20
-80.414
40
0.5
50
270
51
0
0
LINE
8
0
10
307.825
20
-66.914
11
320.825
21
-66.914
0
LINE
8
0
10
307.825
20
-80.914
11
320.825
21
-80.914
0
LINE
8
0
10
307.325
20
-67.414
11
307.325
21
-80.414
0
LINE
8
0
10
321.325
20
-67.414
11
321.325
21
-80.414
0
ARC
8
0
10
307.825
20
-67.414
40
0.5
50
90
51
180
0
ARC
8
0
10
320.825
20
-67.414
40
0.5
50
0
51
90
0
ARC
8
0
10
307.825
20
-80.414
40
0.5
50
180
51
270
0
ARC
8
0
10
320.825
20
-80.414
40
0.5
50
270
51
0
0
LINE
8
0
10
107.8
20
-69.2
11
120.8
21
-69.2
0
LINE
8
0
10
107.8
20
-83.2
11
120.8
21
-83.2
0
LINE
8
0
10
107.3
20
-69.7
11
107.3
21
-82.7
0
LINE
8
0
10
121.3
20
-69.7
11
121.3
21
-82.7
0
ARC
8
0
10
107.8
20
-69.7
40
0.5
50
90
51
180
0
ARC
8
0
10
120.8
20
-69.7
40
0.5
50
0
51
90
0
ARC
8
0
10
107.8
20
-82.7
40
0.5
50
180
51
270
0
ARC
8
0
10
120.8
20
-82.7
40
0.5
50
270
51
0
0
LINE
8
0
10
250.675
20
-69.2
11
263.675
21
-69.2
0
LINE
8
0
10
250.675
20
-83.2
11
263.675
21
-83.2
0
LINE
8
0
10
250.175
20
-69.7
11
250.175
21
-82.7
0
LINE
8
0
10
264.175
20
-69.7
11
264.175
21
-82.7
0
ARC
8
0
10
250.675
20
-69.7
40
0.5
50
90
51
180
0
ARC
8
0
10
263.675
20
-69.7
40
0.5
50
0
51
90
0
ARC
8
0
10
250.675
20
-82.7
40
0.5
50
180
51
270
0
ARC
8
0
10
263.675
20
-82.7
40
0.5
50
270
51
0
0
LINE
8
0
10
7.7875
20
-71.6765
11
20.7875
21
-71.6765
0
LINE
8
0
10
7.7875
20
-85.6765
11
20.7875
21
-85.6765
0
LINE
8
0
10
7.2875
20
-72.1765
11
7.2875
21
-85.1765
0
LINE
8
0
10
21.2875
20
-72.1765
11
21.2875
21
-85.1765
0
ARC
8
0
10
7.7875
20
-72.1765
40
0.5
50
90
51
180
0
ARC
8
0
10
20.7875
20
-72.1765
40
0.5
50
0
51
90
0
ARC
8
0
10
7.7875
20
-85.1765
40
0.5
50
180
51
270
0
ARC
8
0
10
20.7875
20
-85.1765
40
0.5
50
270
51
0
0
LINE
8
0
10
31.6
20
-71.6765
11
44.6
21
-71.6765
0
LINE
8
0
10
31.6
20
-85.6765
11
44.6
21
-85.6765
0
LINE
8
0
10
31.1
20
-72.1765
11
31.1
21
-85.1765
0
LINE
8
0
10
45.1
20
-72.1765
11
45.1
21
-85.1765
0
ARC
8
0
10
31.6
20
-72.1765
40
0.5
50
90
51
180
0
ARC
8
0
10
44.6
20
-72.1765
40
0.5
50
0
51
90
0
ARC
8
0
10
31.6
20
-85.1765
40
0.5
50
180
51
270
0
ARC
8
0
10
44.6
20
-85.1765
40
0.5
50
270
51
0
0
LINE
8
0
10
326.875
20
-71.6765
11
339.875
21
-71.6765
0
LINE
8
0
10
326.875
20
-85.6765
11
339.875
21
-85.6765
0
LINE
8
0
10
326.375
20
-72.1765
11
326.375
21
-85.1765
0
LINE
8
0
10
340.375
20
-72.1765
11
340.375
21
-85.1765
0
ARC
8
0
10
326.875
20
-72.1765
40
0.5
50
90
51
180
0
ARC
8
0
10
339.875
20
-72.1765
40
0.5
50
0
51
90
0
ARC
8
0
10
326.875
20
-85.1765
40
0.5
50
180
51
270
0
ARC
8
0
10
339.875
20
-85.1765
40
0.5
50
270
51
0
0
LINE
8
0
10
350.6875
20
-71.6765
11
363.6875
21
-71.6765
0
LINE
8
0
10
350.6875
20
-85.6765
11
363.6875
21
-85.6765
0
LINE
8
0
10
350.1875
20
-72.1765
11
350.1875
21
-85.1765
0
LINE
8
0
10
364.1875
20
-72.1765
11
364.1875
21
-85.1765
0
ARC
8
0
10
350.6875
20
-72.1765
40
0.5
50
90
51
180
0
ARC
8
0
10
363.6875
20
-72.1765
40
0.5
50
0
51
90
0
ARC
8
0
10
350.6875
20
-85.1765
40
0.5
50
180
51
270
0
ARC
8
0
10
363.6875
20
-85.1765
40
0.5
50
270
51
0
0
LINE
8
0
10
140.35
20
-83.9875
11
140.35
21
-96.9875
0
LINE
8
0
10
126.35
20
-83.9875
11
126.35
21
-96.9875
0
LINE
8
0
10
139.85
20
-83.4875
11
126.85
21
-83.4875
0
LINE
8
0
10
139.85
20
-97.4875
11
126.85
21
-97.4875
0
ARC
8
0
10
139.85
20
-83.9875
40
0.5
50
0
51
90
0
ARC
8
0
10
139.85
20
-96.9875
40
0.5
50
270
51
0
0
ARC
8
0
10
126.85
20
-83.9875
40
0.5
50
90
51
180
0
ARC
8
0
10
126.85
20
-96.9875
40
0.5
50
180
51
270
0
LINE
8
0
10
245.125
20
-83.9875
11
245.125
21
-96.9875
0
LINE
8
0
10
231.125
20
-83.9875
11
231.125
21
-96.9875
0
LINE
8
0
10
244.625
20
-83.4875
11
231.625
21
-83.4875
0
LINE
8
0
10
244.625
20
-97.4875
11
231.625
21
-97.4875
0
ARC
8
0
10
244.625
20
-83.9875
40
0.5
50
0
51
90
0
ARC
8
0
10
244.625
20
-96.9875
40
0.5
50
270
51
0
0
ARC
8
0
10
231.625
20
-83.9875
40
0.5
50
90
51
180
0
ARC
8
0
10
231.625
20
-96.9875
40
0.5
50
180
51
270
0
LINE
8
0
10
69.7
20
-83.4875
11
82.7
21
-83.4875
0
LINE
8
0
10
69.7
20
-97.4875
11
82.7
21
-97.4875
0
LINE
8
0
10
69.2
20
-83.9875
11
69.2
21
-96.9875
0
LINE
8
0
10
83.2
20
-83.9875
11
83.2
21
-96.9875
0
ARC
8
0
10
69.7
20
-83.9875
40
0.5
50
90
51
180
0
ARC
8
0
10
82.7
20
-83.9875
40
0.5
50
0
51
90
0
ARC
8
0
10
69.7
20
-96.9875
40
0.5
50
180
51
270
0
ARC
8
0
10
82.7
20
-96.9875
40
0.5
50
270
51
0
0
LINE
8
0
10
288.775
20
-83.4875
11
301.775
21
-83.4875
0
LINE
8
0
10
288.775
20
-97.4875
11
301.775
21
-97.4875
0
LINE
8
0
10
288.275
20
-83.9875
11
288.275
21
-96.9875
0
LINE
8
0
10
302.275
20
-83.9875
11
302.275
21
-96.9875
0
ARC
8
0
10
288.775
20
-83.9875
40
0.5
50
90
51
180
0
ARC
8
0
10
301.775
20
-83.9875
40
0.5
50
0
51
90
0
ARC
8
0
10
288.775
20
-96.9875
40
0.5
50
180
51
270
0
ARC
8
0
10
301.775
20
-96.9875
40
0.5
50
270
51
0
0
LINE
8
0
10
50.65
20
-85.964
11
63.65
21
-85.964
0
LINE
8
0
10
50.65
20
-99.964
11
63.65
21
-99.964
0
LINE
8
0
10
50.15
20
-86.464
11
50.15
21
-99.464
0
LINE
8
0
10
64.15
20
-86.464
11
64.15
21
-99.464
0
ARC
8
0
10
50.65
20
-86.464
40
0.5
50
90
51
180
0
ARC
8
0
10
63.65
20
-86.464
40
0.5
50
0
51
90
0
ARC
8
0
10
50.65
20
-99.464
40
0.5
50
180
51
270
0
ARC
8
0
10
63.65
20
-99.464
40
0.5
50
270
51
0
0
LINE
8
0
10
88.75
20
-85.964
11
101.75
21
-85.964
0
LINE
8
0
10
88.75
20
-99.964
11
101.75
21
-99.964
0
LINE
8
0
10
88.25
20
-86.464
11
88.25
21
-99.464
0
LINE
8
0
10
102.25
20
-86.464
11
102.25
21
-99.464
0
ARC
8
0
10
88.75
20
-86.464
40
0.5
50
90
51
180
0
ARC
8
0
10
101.75
20
-86.464
40
0.5
50
0
51
90
0
ARC
8
0
10
88.75
20
-99.464
40
0.5
50
180
51
270
0
ARC
8
0
10
101.75
20
-99.464
40
0.5
50
270
51
0
0
LINE
8
0
10
269.725
20
-85.964
11
282.725
21
-85.964
0
LINE
8
0
10
269.725
20
-99.964
11
282.725
21
-99.964
0
LINE
8
0
10
269.225
20
-86.464
11
269.225
21
-99.464
0
LINE
8
0
10
283.225
20
-86.464
11
283.225
21
-99.464
0
ARC
8
0
10
269.725
20
-86.464
40
0.5
50
90
51
180
0
ARC
8
0
10
282.725
20
-86.464
40
0.5
50
0
51
90
0
ARC
8
0
10
269.725
20
-99.464
40
0.5
50
180
51
270
0
ARC
8
0
10
282.725
20
-99.464
40
0.5
50
270
51
0
0
LINE
8
0
10
307.825
20
-85.964
11
320.825
21
-85.964
0
LINE
8
0
10
307.825
20
-99.964
11
320.825
21
-99.964
0
LINE
8
0
10
307.325
20
-86.464
11
307.325
21
-99.464
0
LINE
8
0
10
321.325
20
-86.464
11
321.325
21
-99.464
0
ARC
8
0
10
307.825
20
-86.464
40
0.5
50
90
51
180
0
ARC
8
0
10
320.825
20
-86.464
40
0.5
50
0
51
90
0
ARC
8
0
10
307.825
20
-99.464
40
0.5
50
180
51
270
0
ARC
8
0
10
320.825
20
-99.464
40
0.5
50
270
51
0
0
LINE
8
0
10
107.8
20
-88.25
11
120.8
21
-88.25
0
LINE
8
0
10
107.8
20
-102.25
11
120.8
21
-102.25
0
LINE
8
0
10
107.3
20
-88.75
11
107.3
21
-101.75
0
LINE
8
0
10
121.3
20
-88.75
11
121.3
21
-101.75
0
ARC
8
0
10
107.8
20
-88.75
40
0.5
50
90
51
180
0
ARC
8
0
10
120.8
20
-88.75
40
0.5
50
0
51
90
0
ARC
8
0
10
107.8
20
-101.75
40
0.5
50
180
51
270
0
ARC
8
0
10
120.8
20
-101.75
40
0.5
50
270
51
0
0
LINE
8
0
10
250.675
20
-88.25
11
263.675
21
-88.25
0
LINE
8
0
10
250.675
20
-102.25
11
263.675
21
-102.25
0
LINE
8
0
10
250.175
20
-88.75
11
250.175
21
-101.75
0
LINE
8
0
10
264.175
20
-88.75
11
264.175
21
-101.75
0
ARC
8
0
10
250.675
20
-88.75
40
0.5
50
90
51
180
0
ARC
8
0
10
263.675
20
-88.75
40
0.5
50
0
51
90
0
ARC
8
0
10
250.675
20
-101.75
40
0.5
50
180
51
270
0
ARC
8
0
10
263.675
20
-101.75
40
0.5
50
270
51
0
0
LINE
8
0
10
7.7875
20
-90.7265
11
20.7875
21
-90.7265
0
LINE
8
0
10
7.7875
20
-104.7265
11
20.7875
21
-104.7265
0
LINE
8
0
10
7.2875
20
-91.2265
11
7.2875
21
-104.2265
0
LINE
8
0
10
21.2875
20
-91.2265
11
21.2875
21
-104.2265
0
ARC
8
0
10
7.7875
20
-91.2265
40
0.5
50
90
51
180
0
ARC
8
0
10
20.7875
20
-91.2265
40
0.5
50
0
51
90
0
ARC
8
0
10
7.7875
20
-104.2265
40
0.5
50
180
51
270
0
ARC
8
0
10
20.7875
20
-104.2265
40
0.5
50
270
51
0
0
LINE
8
0
10
31.6
20
-90.7265
11
44.6
21
-90.7265
0
LINE
8
0
10
31.6
20
-104.7265
11
44.6
21
-104.7265
0
LINE
8
0
10
31.1
20
-91.2265
11
31.1
21
-104.2265
0
LINE
8
0
10
45.1
20
-91.2265
11
45.1
21
-104.2265
0
ARC
8
0
10
31.6
20
-91.2265
40
0.5
50
90
51
180
0
ARC
8
0
10
44.6
20
-91.2265
40
0.5
50
0
51
90
0
ARC
8
0
10
31.6
20
-104.2265
40
0.5
50
180
51
270
0
ARC
8
0
10
44.6
20
-104.2265
40
0.5
50
270
51
0
0
LINE
8
0
10
326.875
20
-90.7265
11
339.875
21
-90.7265
0
LINE
8
0
10
326.875
20
-104.7265
11
339.875
21
-104.7265
0
LINE
8
0
10
326.375
20
-91.2265
11
326.375
21
-104.2265
0
LINE
8
0
10
340.375
20
-91.2265
11
340.375
21
-104.2265
0
ARC
8
0
10
326.875
20
-91.2265
40
0.5
50
90
51
180
0
ARC
8
0
10
339.875
20
-91.2265
40
0.5
50
0
51
90
0
ARC
8
0
10
326.875
20
-104.2265
40
0.5
50
180
51
270
0
ARC
8
0
10
339.875
20
-104.2265
40
0.5
50
270
51
0
0
LINE
8
0
10
350.6875
20
-90.7265
11
363.6875
21
-90.7265
0
LINE
8
0
10
350.6875
20
-104.7265
11
363.6875
21
-104.7265
0
LINE
8
0
10
350.1875
20
-91.2265
11
350.1875
21
-104.2265
0
LINE
8
0
10
364.1875
20
-91.2265
11
364.1875
21
-104.2265
0
ARC
8
0
10
350.6875
20
-91.2265
40
0.5
50
90
51
180
0
ARC
8
0
10
363.6875
20
-91.2265
40
0.5
50
0
51
90
0
ARC
8
0
10
350.6875
20
-104.2265
40
0.5
50
180
51
270
0
ARC
8
0
10
363.6875
20
-104.2265
40
0.5
50
270
51
0
0
LINE
8
0
10
69.7
20
-102.5375
11
82.7
21
-102.5375
0
LINE
8
0
10
69.7
20
-116.5375
11
82.7
21
-116.5375
0
LINE
8
0
10
69.2
20
-103.0375
11
69.2
21
-116.0375
0
LINE
8
0
10
83.2
20
-103.0375
11
83.2
21
-116.0375
0
ARC
8
0
10
69.7
20
-103.0375
40
0.5
50
90
51
180
0
ARC
8
0
10
82.7
20
-103.0375
40
0.5
50
0
51
90
0
ARC
8
0
10
69.7
20
-116.0375
40
0.5
50
180
51
270
0
ARC
8
0
10
82.7
20
-116.0375
40
0.5
50
270
51
0
0
LINE
8
0
10
288.775
20
-102.5375
11
301.775
21
-102.5375
0
LINE
8
0
10
288.775
20
-116.5375
11
301.775
21
-116.5375
0
LINE
8
0
10
288.275
20
-103.0375
11
288.275
21
-116.0375
0
LINE
8
0
10
302.275
20
-103.0375
11
302.275
21
-116.0375
0
ARC
8
0
10
288.775
20
-103.0375
40
0.5
50
90
51
180
0
ARC
8
0
10
301.775
20
-103.0375
40
0.5
50
0
51
90
0
ARC
8
0
10
288.775
20
-116.0375
40
0.5
50
180
51
270
0
ARC
8
0
10
301.775
20
-116.0375
40
0.5
50
270
51
0
0
LINE
8
0
10
50.65
20
-105.014
11
63.65
21
-105.014
0
LINE
8
0
10
50.65
20
-119.014
11
63.65
21
-119.014
0
LINE
8
0
10
50.15
20
-105.514
11
50.15
21
-118.514
0
LINE
8
0
10
64.15
20
-105.514
11
64.15
21
-118.514
0
ARC
8
0
10
50.65
20
-105.514
40
0.5
50
90
51
180
0
ARC
8
0
10
63.65
20
-105.514
40
0.5
50
0
51
90
0
ARC
8
0
10
50.65
20
-118.514
40
0.5
50
180
51
270
0
ARC
8
0
10
63.65
20
-118.514
40
0.5
50
270
51
0
0
LINE
8
0
10
88.75
20
-105.014
11
101.75
21
-105.014
0
LINE
8
0
10
88.75
20
-119.014
11
101.75
21
-119.014
0
LINE
8
0
10
88.25
20
-105.514
11
88.25
21
-118.514
0
LINE
8
0
10
102.25
20
-105.514
11
102.25
21
-118.514
0
ARC
8
0
10
88.75
20
-105.514
40
0.5
50
90
51
180
0
ARC
8
0
10
101.75
20
-105.514
40
0.5
50
0
51
90
0
ARC
8
0
10
88.75
20
-118.514
40
0.5
50
180
51
270
0
ARC
8
0
10
101.75
20
-118.514
40
0.5
50
270
51
0
0
LINE
8
0
10
269.725
20
-105.014
11
282.725
21
-105.014
0
LINE
8
0
10
269.725
20
-119.014
11
282.725
21
-119.014
0
LINE
8
0
10
269.225
20
-105.514
11
269.225
21
-118.514
0
LINE
8
0
10
283.225
20
-105.514
11
283.225
21
-118.514
0
ARC
8
0
10
269.725
20
-105.514
40
0.5
50
90
51
180
0
ARC
8
0
10
282.725
20
-105.514
40
0.5
50
0
51
90
0
ARC
8
0
10
269.725
20
-118.514
40
0.5
50
180
51
270
0
ARC
8
0
10
282.725
20
-118.514
40
0.5
50
270
51
0
0
LINE
8
0
10
307.825
20
-105.014
11
320.825
21
-105.014
0
LINE
8
0
10
307.825
20
-119.014
11
320.825
21
-119.014
0
LINE
8
0
10
307.325
20
-105.514
11
307.325
21
-118.514
0
LINE
8
0
10
321.325
20
-105.514
11
321.325
21
-118.514
0
ARC
8
0
10
307.825
20
-105.514
40
0.5
50
90
51
180
0
ARC
8
0
10
320.825
20
-105.514
40
0.5
50
0
51
90
0
ARC
8
0
10
307.825
20
-118.514
40
0.5
50
180
51
270
0
ARC
8
0
10
320.825
20
-118.514
40
0.5
50
270
51
0
0
LINE
8
0
10
12.55
20
-109.7765
11
25.55
21
-109.7765
0
LINE
8
0
10
12.55
20
-123.7765
11
25.55
21
-123.7765
0
LINE
8
0
10
12.05
20
-110.2765
11
12.05
21
-123.2765
0
LINE
8
0
10
26.05
20
-110.2765
11
26.05
21
-123.2765
0
ARC
8
0
10
12.55
20
-110.2765
40
0.5
50
90
51
180
0
ARC
8
0
10
25.55
20
-110.2765
40
0.5
50
0
51
90
0
ARC
8
0
10
12.55
20
-123.2765
40
0.5
50
180
51
270
0
ARC
8
0
10
25.55
20
-123.2765
40
0.5
50
270
51
0
0
LINE
8
0
10
31.6
20
-109.7765
11
44.6
21
-109.7765
0
LINE
8
0
10
31.6
20
-123.7765
11
44.6
21
-123.7765
0
LINE
8
0
10
31.1
20
-110.2765
11
31.1
21
-123.2765
0
LINE
8
0
10
45.1
20
-110.2765
11
45.1
21
-123.2765
0
ARC
8
0
10
31.6
20
-110.2765
40
0.5
50
90
51
180
0
ARC
8
0
10
44.6
20
-110.2765
40
0.5
50
0
51
90
0
ARC
8
0
10
31.6
20
-123.2765
40
0.5
50
180
51
270
0
ARC
8
0
10
44.6
20
-123.2765
40
0.5
50
270
51
0
0
LINE
8
0
10
326.875
20
-109.7765
11
339.875
21
-109.7765
0
LINE
8
0
10
326.875
20
-123.7765
11
339.875
21
-123.7765
0
LINE
8
0
10
326.375
20
-110.2765
11
326.375
21
-123.2765
0
LINE
8
0
10
340.375
20
-110.2765
11
340.375
21
-123.2765
0
ARC
8
0
10
326.875
20
-110.2765
40
0.5
50
90
51
180
0
ARC
8
0
10
339.875
20
-110.2765
40
0.5
50
0
51
90
0
ARC
8
0
10
326.875
20
-123.2765
40
0.5
50
180
51
270
0
ARC
8
0
10
339.875
20
-123.2765
40
0.5
50
270
51
0
0
LINE
8
0
10
345.925
20
-109.7765
11
358.925
21
-109.7765
0
LINE
8
0
10
345.925
20
-123.7765
11
358.925
21
-123.7765
0
LINE
8
0
10
345.425
20
-110.2765
11
345.425
21
-123.2765
0
LINE
8
0
10
359.425
20
-110.2765
11
359.425
21
-123.2765
0
ARC
8
0
10
345.925
20
-110.2765
40
0.5
50
90
51
180
0
ARC
8
0
10
358.925
20
-110.2765
40
0.5
50
0
51
90
0
ARC
8
0
10
345.925
20
-123.2765
40
0.5
50
180
51
270
0
ARC
8
0
10
358.925
20
-123.2765
40
0.5
50
270
51
0
0
LINE
8
0
10
170.5511327
20
-110.8554642
11
181.8094629
21
-117.3554642
0
LINE
8
0
10
163.5511327
20
-122.9798198
11
174.8094629
21
-129.4798198
0
LINE
8
0
10
169.86812
20
-111.0384769
11
163.36812
21
-122.2968071
0
LINE
8
0
10
181.9924756
20
-118.0384769
11
175.4924756
21
-129.2968071
0
ARC
8
0
10
170.3011327
20
-111.2884769
40
0.5
50
60
51
150
0
ARC
8
0
10
181.5594629
20
-117.7884769
40
0.5
50
330
51
60
0
ARC
8
0
10
163.8011327
20
-122.5468071
40
0.5
50
150
51
240
0
ARC
8
0
10
175.0594629
20
-129.0468071
40
0.5
50
240
51
330
0
LINE
8
0
10
151.6720988
20
-105.4549102
11
162.930429
21
-111.9549102
0
LINE
8
0
10
144.6720988
20
-117.5792658
11
155.930429
21
-124.0792658
0
LINE
8
0
10
150.9890861
20
-105.6379229
11
144.4890861
21
-116.8962531
0
LINE
8
0
10
163.1134417
20
-112.6379229
11
156.6134417
21
-123.8962531
0
ARC
8
0
10
151.4220988
20
-105.8879229
40
0.5
50
60
51
150
0
ARC
8
0
10
162.680429
20
-112.3879229
40
0.5
50
330
51
60
0
ARC
8
0
10
144.9220988
20
-117.1462531
40
0.5
50
150
51
240
0
ARC
8
0
10
156.180429
20
-123.6462531
40
0.5
50
240
51
330
0
LINE
8
0
10
161.0261327
20
-127.3532481
11
172.2844629
21
-133.8532481
0
LINE
8
0
10
154.0261327
20
-139.4776037
11
165.2844629
21
-145.9776037
0
LINE
8
0
10
160.34312
20
-127.5362608
11
153.84312
21
-138.794591
0
LINE
8
0
10
172.4674756
20
-134.5362608
11
165.9674756
21
-145.794591
0
ARC
8
0
10
160.7761327
20
-127.7862608
40
0.5
50
60
51
150
0
ARC
8
0
10
172.0344629
20
-134.2862608
40
0.5
50
330
51
60
0
ARC
8
0
10
154.2761327
20
-139.044591
40
0.5
50
150
51
240
0
ARC
8
0
10
165.5344629
20
-145.544591
40
0.5
50
240
51
330
0
LINE
8
0
10
134.7094077
20
-123.7351528
11
128.2094077
21
-134.993483
0
LINE
8
0
10
122.5850521
20
-116.7351528
11
116.0850521
21
-127.993483
0
LINE
8
0
10
134.526395
20
-123.0521401
11
123.2680648
21
-116.5521401
0
LINE
8
0
10
127.526395
20
-135.1764957
11
116.2680648
21
-128.6764957
0
ARC
8
0
10
134.276395
20
-123.4851528
40
0.5
50
330
51
60
0
ARC
8
0
10
127.776395
20
-134.743483
40
0.5
50
240
51
330
0
ARC
8
0
10
123.0180648
20
-116.9851528
40
0.5
50
60
51
150
0
ARC
8
0
10
116.5180648
20
-128.243483
40
0.5
50
150
51
240
0
LINE
8
0
10
151.2071917
20
-133.2601528
11
144.7071917
21
-144.518483
0
LINE
8
0
10
139.0828361
20
-126.2601528
11
132.5828361
21
-137.518483
0
LINE
8
0
10
151.024179
20
-132.5771401
11
139.7658488
21
-126.0771401
0
LINE
8
0
10
144.024179
20
-144.7014957
11
132.7658488
21
-138.2014957
0
ARC
8
0
10
150.774179
20
-133.0101528
40
0.5
50
330
51
60
0
ARC
8
0
10
144.274179
20
-144.268483
40
0.5
50
240
51
330
0
ARC
8
0
10
139.5158488
20
-126.5101528
40
0.5
50
60
51
150
0
ARC
8
0
10
133.0158488
20
-137.768483
40
0.5
50
150
51
240
0
LINE
8
0
10
151.5011327
20
-143.8510321
11
162.7594629
21
-150.3510321
0
LINE
8
0
10
144.5011327
20
-155.9753877
11
155.7594629
21
-162.4753877
0
LINE
8
0
10
150.81812
20
-144.0340448
11
144.31812
21
-155.292375
0
LINE
8
0
10
162.9424756
20
-151.0340448
11
156.4424756
21
-162.292375
0
ARC
8
0
10
151.2511327
20
-144.2840448
40
0.5
50
60
51
150
0
ARC
8
0
10
162.5094629
20
-150.7840448
40
0.5
50
330
51
60
0
ARC
8
0
10
144.7511327
20
-155.542375
40
0.5
50
150
51
240
0
ARC
8
0
10
156.0094629
20
-162.042375
40
0.5
50
240
51
330
0
LINE
8
0
10
189.6655371
20
-117.3554642
11
200.9238673
21
-110.8554642
0
LINE
8
0
10
196.6655371
20
-129.4798198
11
207.9238673
21
-122.9798198
0
LINE
8
0
10
189.4825244
20
-118.0384769
11
195.9825244
21
-129.2968071
0
LINE
8
0
10
201.60688
20
-111.0384769
11
208.10688
21
-122.2968071
0
ARC
8
0
10
189.9155371
20
-117.7884769
40
0.5
50
120
51
210
0
ARC
8
0
10
201.1738673
20
-111.2884769
40
0.5
50
30
51
120
0
ARC
8
0
10
196.4155371
20
-129.0468071
40
0.5
50
210
51
300
0
ARC
8
0
10
207.6738673
20
-122.5468071
40
0.5
50
300
51
30
0
LINE
8
0
10
208.544571
20
-111.9549102
11
219.8029012
21
-105.4549102
0
LINE
8
0
10
215.544571
20
-124.0792658
11
226.8029012
21
-117.5792658
0
LINE
8
0
10
208.3615583
20
-112.6379229
11
214.8615583
21
-123.8962531
0
LINE
8
0
10
220.4859139
20
-105.6379229
11
226.9859139
21
-116.8962531
0
ARC
8
0
10
208.794571
20
-112.3879229
40
0.5
50
120
51
210
0
ARC
8
0
10
220.0529012
20
-105.8879229
40
0.5
50
30
51
120
0
ARC
8
0
10
215.294571
20
-123.6462531
40
0.5
50
210
51
300
0
ARC
8
0
10
226.5529012
20
-117.1462531
40
0.5
50
300
51
30
0
LINE
8
0
10
199.1905371
20
-133.8532481
11
210.4488673
21
-127.3532481
0
LINE
8
0
10
206.1905371
20
-145.9776037
11
217.4488673
21
-139.4776037
0
LINE
8
0
10
199.0075244
20
-134.5362608
11
205.5075244
21
-145.794591
0
LINE
8
0
10
211.13188
20
-127.5362608
11
217.63188
21
-138.794591
0
ARC
8
0
10
199.4405371
20
-134.2862608
40
0.5
50
120
51
210
0
ARC
8
0
10
210.6988673
20
-127.7862608
40
0.5
50
30
51
120
0
ARC
8
0
10
205.9405371
20
-145.544591
40
0.5
50
210
51
300
0
ARC
8
0
10
217.1988673
20
-139.044591
40
0.5
50
300
51
30
0
LINE
8
0
10
232.3921639
20
-126.2601528
11
238.8921639
21
-137.518483
0
LINE
8
0
10
220.2678083
20
-133.2601528
11
226.7678083
21
-144.518483
0
LINE
8
0
10
231.7091512
20
-126.0771401
11
220.450821
21
-132.5771401
0
LINE
8
0
10
238.7091512
20
-138.2014957
11
227.450821
21
-144.7014957
0
ARC
8
0
10
231.9591512
20
-126.5101528
40
0.5
50
30
51
120
0
ARC
8
0
10
238.4591512
20
-137.768483
40
0.5
50
300
51
30
0
ARC
8
0
10
220.700821
20
-133.0101528
40
0.5
50
120
51
210
0
ARC
8
0
10
227.200821
20
-144.268483
40
0.5
50
210
51
300
0
LINE
8
0
10
248.8899479
20
-116.7351528
11
255.3899479
21
-127.993483
0
LINE
8
0
10
236.7655923
20
-123.7351528
11
243.2655923
21
-134.993483
0
LINE
8
0
10
248.2069352
20
-116.5521401
11
236.948605
21
-123.0521401
0
LINE
8
0
10
255.2069352
20
-128.6764957
11
243.948605
21
-135.1764957
0
ARC
8
0
10
248.4569352
20
-116.9851528
40
0.5
50
30
51
120
0
ARC
8
0
10
254.9569352
20
-128.243483
40
0.5
50
300
51
30
0
ARC
8
0
10
237.198605
20
-123.4851528
40
0.5
50
120
51
210
0
ARC
8
0
10
243.698605
20
-134.743483
40
0.5
50
210
51
300
0
LINE
8
0
10
208.7155371
20
-150.3510321
11
219.9738673
21
-143.8510321
0
LINE
8
0
10
215.7155371
20
-162.4753877
11
226.9738673
21
-155.9753877
0
LINE
8
0
10
208.5325244
20
-151.0340448
11
215.0325244
21
-162.292375
0
LINE
8
0
10
220.65688
20
-144.0340448
11
227.15688
21
-155.292375
0
ARC
8
0
10
208.9655371
20
-150.7840448
40
0.5
50
120
51
210
0
ARC
8
0
10
220.2238673
20
-144.2840448
40
0.5
50
30
51
120
0
ARC
8
0
10
215.4655371
20
-162.042375
40
0.5
50
210
51
300
0
ARC
8
0
10
226.7238673
20
-155.542375
40
0.5
50
300
51
30
0
LINE
8
0
10
0
20
-162.6882099
11
371.475
21
-162.6882099
0
LINE
8
0
10
0
20
-23.8125
11
371.475
21
-23.8125
0
LINE
8
0
10
0
20
-162.6882099
11
0
21
-23.8125
0
LINE
8
0
10
371.475
20
-162.6882099
11
371.475
21
-23.8125
0
ENDSEC
0
EOF