  0
SECTION
  2
HEADER
  9
$ANGBASE
  50
0.0
  9
$ANGDIR
  70
1
  9
$MEASUREMENT
  70
1
  0
ENDSEC
  0
SECTION
  2
TABLES
  0
TABLE
  2
LTYPE
  70
4
  0
LTYPE
  5
40F
  2
CONTINUOUS
  70
0
  3
Solid line
  72
65
  73
0
  40
0.0
  0
LTYPE
  5
410
  2
DASHDOT
 70
0
  3
Dash Dot ____ _ ____ _
 72
65
 73
4
 40
2.0
 49
1.25
 49
-0.25
 49
0.25
 49
-0.25
  0
LTYPE
  5
411
  2
DASHED
 70
0
  3
Dashed __ __ __ __ __
 72
65
 73
2
 40
0.75
 49
0.5
 49
-0.25
  0
LTYPE
  5
43B
  2
DOTTED
 70
0
  3
Dotted .  .  .  .
 72
65
 73
2
 40
0.2
 49
0.0
 49
-0.2
  0
ENDTAB
  0
TABLE
  2
STYLE
  70
4
  0
STYLE
  2
KICAD
  70
0
  40
0
  41
1
  42
1
  50
0
  71
0
  3
isocp.shx
  0
STYLE
  2
KICADB
  70
0
  40
0
  41
1
  42
1
  50
0
  71
0
  3
isocp.shx
  0
STYLE
  2
KICADI
  70
0
  40
0
  41
1
  42
1
  50
15
  71
0
  3
isocp.shx
  0
STYLE
  2
KICADBI
  70
0
  40
0
  41
1
  42
1
  50
15
  71
0
  3
isocp.shx
  0
ENDTAB
  0
TABLE
  2
LAYER
  70
1
  0
LAYER
  2
BLACK
  70
0
  62
7
  6
CONTINUOUS
  0
ENDTAB
  0
ENDSEC
  0
SECTION
  2
ENTITIES
0
LINE
8
BLACK
6
CONTINUOUS
10
85.3999999999999915
20
-51.8999999999999986
11
41.
21
-56.
0
LINE
8
BLACK
6
CONTINUOUS
10
104.5999999999999943
20
-47.
11
85.3999999999999915
21
-51.8999999999999986
0
LINE
8
BLACK
6
CONTINUOUS
10
123.7999999999999972
20
-47.
11
104.5999999999999943
21
-47.
0
LINE
8
BLACK
6
CONTINUOUS
10
142.7999999999999829
20
-51.6999999999999957
11
123.7999999999999972
21
-47.
0
LINE
8
BLACK
6
CONTINUOUS
10
161.9000000000000057
20
-56.5999999999999943
11
142.7999999999999829
21
-51.6999999999999957
0
LINE
8
BLACK
6
CONTINUOUS
10
164.6999999999999886
20
-57.
11
161.9000000000000057
21
-56.5999999999999943
0
LINE
8
BLACK
6
CONTINUOUS
10
194.7999999999999829
20
-57.
11
164.6999999999999886
21
-57.
0
LINE
8
BLACK
6
CONTINUOUS
10
194.7999999999999829
20
-110.7999999999999972
11
194.7999999999999829
21
-57.
0
LINE
8
BLACK
6
CONTINUOUS
10
194.7999999999999829
20
-117.
11
194.7999999999999829
21
-110.7999999999999972
0
LINE
8
BLACK
6
CONTINUOUS
10
202.5999999999999943
20
-134.9000000000000057
11
194.7999999999999829
21
-117.
0
LINE
8
BLACK
6
CONTINUOUS
10
219.5999999999999943
20
-144.7999999999999829
11
202.5999999999999943
21
-134.9000000000000057
0
LINE
8
BLACK
6
CONTINUOUS
10
220.2999999999999829
20
-147.
11
219.5999999999999943
21
-144.7999999999999829
0
LINE
8
BLACK
6
CONTINUOUS
10
195.
20
-190.5999999999999943
11
220.2999999999999829
21
-147.
0
LINE
8
BLACK
6
CONTINUOUS
10
190.5
20
-195.3999999999999773
11
195.
21
-190.5999999999999943
0
LINE
8
BLACK
6
CONTINUOUS
10
173.5
20
-185.5999999999999943
11
190.5
21
-195.3999999999999773
0
LINE
8
BLACK
6
CONTINUOUS
10
142.
20
-162.
11
173.5
21
-185.5999999999999943
0
LINE
8
BLACK
6
CONTINUOUS
10
123.1999999999999886
20
-148.2999999999999829
11
142.
21
-162.
0
LINE
8
BLACK
6
CONTINUOUS
10
106.
20
-148.2999999999999829
11
123.1999999999999886
21
-148.2999999999999829
0
LINE
8
BLACK
6
CONTINUOUS
10
86.
20
-154.
11
106.
21
-148.2999999999999829
0
LINE
8
BLACK
6
CONTINUOUS
10
41.
20
-154.
11
86.
21
-154.
0
LINE
8
BLACK
6
CONTINUOUS
10
41.
20
-56.
11
41.
21
-154.
  0
ENDSEC
  0
EOF
