  0
SECTION
  2
HEADER
  9
$ANGBASE
  50
0.0
  9
$ANGDIR
  70
1
  9
$MEASUREMENT
  70
1
  0
ENDSEC
  0
SECTION
  2
TABLES
  0
TABLE
  2
LTYPE
  70
4
  0
LTYPE
  5
40F
  2
CONTINUOUS
  70
0
  3
Solid line
  72
65
  73
0
  40
0.0
  0
LTYPE
  5
410
  2
DASHDOT
 70
0
  3
Dash Dot ____ _ ____ _
 72
65
 73
4
 40
2.0
 49
1.25
 49
-0.25
 49
0.25
 49
-0.25
  0
LTYPE
  5
411
  2
DASHED
 70
0
  3
Dashed __ __ __ __ __
 72
65
 73
2
 40
0.75
 49
0.5
 49
-0.25
  0
LTYPE
  5
43B
  2
DOTTED
 70
0
  3
Dotted .  .  .  .
 72
65
 73
2
 40
0.2
 49
0.0
 49
-0.2
  0
ENDTAB
  0
TABLE
  2
STYLE
  70
4
  0
STYLE
  2
KICAD
  70
0
  40
0
  41
1
  42
1
  50
0
  71
0
  3
isocp.shx
  0
STYLE
  2
KICADB
  70
0
  40
0
  41
1
  42
1
  50
0
  71
0
  3
isocp.shx
  0
STYLE
  2
KICADI
  70
0
  40
0
  41
1
  42
1
  50
15
  71
0
  3
isocp.shx
  0
STYLE
  2
KICADBI
  70
0
  40
0
  41
1
  42
1
  50
15
  71
0
  3
isocp.shx
  0
ENDTAB
  0
TABLE
  2
LAYER
  70
1
  0
LAYER
  2
BLACK
  70
0
  62
7
  6
CONTINUOUS
  0
ENDTAB
  0
ENDSEC
  0
SECTION
  2
ENTITIES
  0
TEXT
  7
KICAD
  8
BLACK
  10
133.3499999999999943
  11
133.3499999999999943
  20
-146.1124999999999829
  21
-146.1124999999999829
  40
1.
  41
1.
  50
0.00000000
  51
0.00000000
  71
0
  72
1
  73
2
  1
~
  0
TEXT
  7
KICAD
  8
BLACK
  10
133.3499999999999943
  11
133.3499999999999943
  20
-138.1124999999999829
  21
-138.1124999999999829
  40
1.
  41
1.
  50
0.00000000
  51
0.00000000
  71
0
  72
1
  73
2
  1
S29
  0
TEXT
  7
KICAD
  8
BLACK
  10
152.4000000000000057
  11
152.4000000000000057
  20
-74.6749999999999972
  21
-74.6749999999999972
  40
1.
  41
1.
  50
0.00000000
  51
0.00000000
  71
0
  72
1
  73
2
  1
~
  0
TEXT
  7
KICAD
  8
BLACK
  10
152.4000000000000057
  11
152.4000000000000057
  20
-66.6749999999999972
  21
-66.6749999999999972
  40
1.
  41
1.
  50
0.00000000
  51
0.00000000
  71
0
  72
1
  73
2
  1
S6
  0
TEXT
  7
KICAD
  8
BLACK
  10
76.2000000000000028
  11
76.2000000000000028
  20
-131.8249999999999886
  21
-131.8249999999999886
  40
1.
  41
1.
  50
0.00000000
  51
0.00000000
  71
0
  72
1
  73
2
  1
~
  0
TEXT
  7
KICAD
  8
BLACK
  10
76.2000000000000028
  11
76.2000000000000028
  20
-123.8249999999999886
  21
-123.8249999999999886
  40
1.
  41
1.
  50
0.00000000
  51
0.00000000
  71
0
  72
1
  73
2
  1
S20
  0
TEXT
  7
KICAD
  8
BLACK
  10
54.7687499999999972
  11
54.7687499999999972
  20
-93.7249999999999943
  21
-93.7249999999999943
  40
1.
  41
1.
  50
0.00000000
  51
0.00000000
  71
0
  72
1
  73
2
  1
~
  0
TEXT
  7
KICAD
  8
BLACK
  10
54.7687499999999972
  11
54.7687499999999972
  20
-85.7249999999999943
  21
-85.7249999999999943
  40
1.
  41
1.
  50
0.00000000
  51
0.00000000
  71
0
  72
1
  73
2
  1
S7
  0
TEXT
  7
KICAD
  8
BLACK
  10
199.8125
  11
199.8125
  20
-113.7999999999999972
  21
-113.7999999999999972
  40
1.
  41
1.
  50
90.00000000
  51
0.00000000
  71
0
  72
1
  73
2
  1
TRRS
  0
TEXT
  7
KICAD
  8
BLACK
  10
184.2125000000000057
  11
184.2125000000000057
  20
-113.7999999999999972
  21
-113.7999999999999972
  40
0.7
  41
1.
  50
90.00000000
  51
0.00000000
  71
0
  72
1
  73
2
  1
Tip
  0
TEXT
  7
KICAD
  8
BLACK
  10
187.9625000000000057
  11
187.9625000000000057
  20
-113.7999999999999972
  21
-113.7999999999999972
  40
0.7
  41
1.
  50
90.00000000
  51
0.00000000
  71
0
  72
1
  73
2
  1
Ring1
  0
TEXT
  7
KICAD
  8
BLACK
  10
182.8125
  11
182.8125
  20
-114.0499999999999972
  21
-114.0499999999999972
  40
0.7
  41
1.
  50
90.00000000
  51
0.00000000
  71
0
  72
1
  73
2
  1
Sleeve
  0
TEXT
  7
KICAD
  8
BLACK
  10
190.9624999999999773
  11
190.9624999999999773
  20
-113.7999999999999972
  21
-113.7999999999999972
  40
0.7
  41
1.
  50
90.00000000
  51
0.00000000
  71
0
  72
1
  73
2
  1
Ring2
  0
TEXT
  7
KICAD
  8
BLACK
  10
152.4000000000000057
  11
152.4000000000000057
  20
-112.7749999999999915
  21
-112.7749999999999915
  40
1.
  41
1.
  50
0.00000000
  51
0.00000000
  71
0
  72
1
  73
2
  1
~
  0
TEXT
  7
KICAD
  8
BLACK
  10
152.4000000000000057
  11
152.4000000000000057
  20
-104.7749999999999915
  21
-104.7749999999999915
  40
1.
  41
1.
  50
0.00000000
  51
0.00000000
  71
0
  72
1
  73
2
  1
S18
  0
TEXT
  7
KICAD
  8
BLACK
  10
114.2999999999999972
  11
114.2999999999999972
  20
-122.2999999999999972
  21
-122.2999999999999972
  40
1.
  41
1.
  50
0.00000000
  51
0.00000000
  71
0
  72
1
  73
2
  1
~
  0
TEXT
  7
KICAD
  8
BLACK
  10
114.2999999999999972
  11
114.2999999999999972
  20
-114.2999999999999972
  21
-114.2999999999999972
  40
1.
  41
1.
  50
0.00000000
  51
0.00000000
  71
0
  72
1
  73
2
  1
S22
  0
TEXT
  7
KICAD
  8
BLACK
  10
76.2000000000000028
  11
76.2000000000000028
  20
-112.7749999999999915
  21
-112.7749999999999915
  40
1.
  41
1.
  50
0.00000000
  51
0.00000000
  71
0
  72
1
  73
2
  1
~
  0
TEXT
  7
KICAD
  8
BLACK
  10
76.2000000000000028
  11
76.2000000000000028
  20
-104.7749999999999915
  21
-104.7749999999999915
  40
1.
  41
1.
  50
0.00000000
  51
0.00000000
  71
0
  72
1
  73
2
  1
S14
  0
TEXT
  7
KICAD
  8
BLACK
  10
54.7687499999999972
  11
54.7687499999999972
  20
-112.7749999999999915
  21
-112.7749999999999915
  40
1.
  41
1.
  50
0.00000000
  51
0.00000000
  71
0
  72
1
  73
2
  1
~
  0
TEXT
  7
KICAD
  8
BLACK
  10
54.7687499999999972
  11
54.7687499999999972
  20
-104.7749999999999915
  21
-104.7749999999999915
  40
1.
  41
1.
  50
0.00000000
  51
0.00000000
  71
0
  72
1
  73
2
  1
S13
  0
TEXT
  7
KICAD
  8
BLACK
  10
154.7347299999999848
  11
154.7347299999999848
  20
-161.3675209999999822
  21
-161.3675209999999822
  40
1.
  41
1.
  50
-30.00000000
  51
0.00000000
  71
0
  72
1
  73
2
  1
~
  0
TEXT
  7
KICAD
  8
BLACK
  10
158.7347299999999848
  11
158.7347299999999848
  20
-154.4393179999999859
  21
-154.4393179999999859
  40
1.
  41
1.
  50
-30.00000000
  51
0.00000000
  71
0
  72
1
  73
2
  1
S33
  0
TEXT
  7
KICAD
  8
BLACK
  10
76.2000000000000028
  11
76.2000000000000028
  20
-74.6749999999999972
  21
-74.6749999999999972
  40
1.
  41
1.
  50
0.00000000
  51
0.00000000
  71
0
  72
1
  73
2
  1
~
  0
TEXT
  7
KICAD
  8
BLACK
  10
76.2000000000000028
  11
76.2000000000000028
  20
-66.6749999999999972
  21
-66.6749999999999972
  40
1.
  41
1.
  50
0.00000000
  51
0.00000000
  71
0
  72
1
  73
2
  1
S2
  0
TEXT
  7
KICAD
  8
BLACK
  10
76.2000000000000028
  11
76.2000000000000028
  20
-150.875
  21
-150.875
  40
1.
  41
1.
  50
0.00000000
  51
0.00000000
  71
0
  72
1
  73
2
  1
~
  0
TEXT
  7
KICAD
  8
BLACK
  10
76.2000000000000028
  11
76.2000000000000028
  20
-142.875
  21
-142.875
  40
1.
  41
1.
  50
0.00000000
  51
0.00000000
  71
0
  72
1
  73
2
  1
S26
  0
TEXT
  7
KICAD
  8
BLACK
  10
152.4000000000000057
  11
152.4000000000000057
  20
-93.7249999999999943
  21
-93.7249999999999943
  40
1.
  41
1.
  50
0.00000000
  51
0.00000000
  71
0
  72
1
  73
2
  1
~
  0
TEXT
  7
KICAD
  8
BLACK
  10
152.4000000000000057
  11
152.4000000000000057
  20
-85.7249999999999943
  21
-85.7249999999999943
  40
1.
  41
1.
  50
0.00000000
  51
0.00000000
  71
0
  72
1
  73
2
  1
S12
  0
TEXT
  7
KICAD
  8
BLACK
  10
133.3499999999999943
  11
133.3499999999999943
  20
-108.0124999999999886
  21
-108.0124999999999886
  40
1.
  41
1.
  50
0.00000000
  51
0.00000000
  71
0
  72
1
  73
2
  1
~
  0
TEXT
  7
KICAD
  8
BLACK
  10
133.3499999999999943
  11
133.3499999999999943
  20
-100.0124999999999886
  21
-100.0124999999999886
  40
1.
  41
1.
  50
0.00000000
  51
0.00000000
  71
0
  72
1
  73
2
  1
S17
  0
TEXT
  7
KICAD
  8
BLACK
  10
114.2999999999999972
  11
114.2999999999999972
  20
-65.1499999999999915
  21
-65.1499999999999915
  40
1.
  41
1.
  50
0.00000000
  51
0.00000000
  71
0
  72
1
  73
2
  1
~
  0
TEXT
  7
KICAD
  8
BLACK
  10
114.2999999999999972
  11
114.2999999999999972
  20
-57.1499999999999986
  21
-57.1499999999999986
  40
1.
  41
1.
  50
0.00000000
  51
0.00000000
  71
0
  72
1
  73
2
  1
S4
  0
TEXT
  7
KICAD
  8
BLACK
  10
54.7687499999999972
  11
54.7687499999999972
  20
-74.6749999999999972
  21
-74.6749999999999972
  40
1.
  41
1.
  50
0.00000000
  51
0.00000000
  71
0
  72
1
  73
2
  1
~
  0
TEXT
  7
KICAD
  8
BLACK
  10
54.7687499999999972
  11
54.7687499999999972
  20
-66.6749999999999972
  21
-66.6749999999999972
  40
1.
  41
1.
  50
0.00000000
  51
0.00000000
  71
0
  72
1
  73
2
  1
S1
  0
TEXT
  7
KICAD
  8
BLACK
  10
171.2325139999999806
  11
171.2325139999999806
  20
-170.8925209999999879
  21
-170.8925209999999879
  40
1.
  41
1.
  50
-30.00000000
  51
0.00000000
  71
0
  72
1
  73
2
  1
~
  0
TEXT
  7
KICAD
  8
BLACK
  10
175.2325139999999806
  11
175.2325139999999806
  20
-163.9643179999999916
  21
-163.9643179999999916
  40
1.
  41
1.
  50
-30.00000000
  51
0.00000000
  71
0
  72
1
  73
2
  1
S34
  0
TEXT
  7
KICAD
  8
BLACK
  10
114.2999999999999972
  11
114.2999999999999972
  20
-103.25
  21
-103.25
  40
1.
  41
1.
  50
0.00000000
  51
0.00000000
  71
0
  72
1
  73
2
  1
~
  0
TEXT
  7
KICAD
  8
BLACK
  10
114.2999999999999972
  11
114.2999999999999972
  20
-95.25
  21
-95.25
  40
1.
  41
1.
  50
0.00000000
  51
0.00000000
  71
0
  72
1
  73
2
  1
S16
  0
TEXT
  7
KICAD
  8
BLACK
  10
133.3499999999999943
  11
133.3499999999999943
  20
-69.9124999999999943
  21
-69.9124999999999943
  40
1.
  41
1.
  50
0.00000000
  51
0.00000000
  71
0
  72
1
  73
2
  1
~
  0
TEXT
  7
KICAD
  8
BLACK
  10
133.3499999999999943
  11
133.3499999999999943
  20
-61.9124999999999943
  21
-61.9124999999999943
  40
1.
  41
1.
  50
0.00000000
  51
0.00000000
  71
0
  72
1
  73
2
  1
S5
  0
TEXT
  7
KICAD
  8
BLACK
  10
54.7687499999999972
  11
54.7687499999999972
  20
-150.875
  21
-150.875
  40
1.
  41
1.
  50
0.00000000
  51
0.00000000
  71
0
  72
1
  73
2
  1
~
  0
TEXT
  7
KICAD
  8
BLACK
  10
54.7687499999999972
  11
54.7687499999999972
  20
-142.875
  21
-142.875
  40
1.
  41
1.
  50
0.00000000
  51
0.00000000
  71
0
  72
1
  73
2
  1
S25
  0
TEXT
  7
KICAD
  8
BLACK
  10
133.3499999999999943
  11
133.3499999999999943
  20
-127.0625
  21
-127.0625
  40
1.
  41
1.
  50
0.00000000
  51
0.00000000
  71
0
  72
1
  73
2
  1
~
  0
TEXT
  7
KICAD
  8
BLACK
  10
133.3499999999999943
  11
133.3499999999999943
  20
-119.0625
  21
-119.0625
  40
1.
  41
1.
  50
0.00000000
  51
0.00000000
  71
0
  72
1
  73
2
  1
S23
  0
TEXT
  7
KICAD
  8
BLACK
  10
54.7687499999999972
  11
54.7687499999999972
  20
-131.8249999999999886
  21
-131.8249999999999886
  40
1.
  41
1.
  50
0.00000000
  51
0.00000000
  71
0
  72
1
  73
2
  1
~
  0
TEXT
  7
KICAD
  8
BLACK
  10
54.7687499999999972
  11
54.7687499999999972
  20
-123.8249999999999886
  21
-123.8249999999999886
  40
1.
  41
1.
  50
0.00000000
  51
0.00000000
  71
0
  72
1
  73
2
  1
S19
  0
TEXT
  7
KICAD
  8
BLACK
  10
114.2999999999999972
  11
114.2999999999999972
  20
-141.3499999999999943
  21
-141.3499999999999943
  40
1.
  41
1.
  50
0.00000000
  51
0.00000000
  71
0
  72
1
  73
2
  1
~
  0
TEXT
  7
KICAD
  8
BLACK
  10
114.2999999999999972
  11
114.2999999999999972
  20
-133.3499999999999943
  21
-133.3499999999999943
  40
1.
  41
1.
  50
0.00000000
  51
0.00000000
  71
0
  72
1
  73
2
  1
S28
  0
TEXT
  7
KICAD
  8
BLACK
  10
95.25
  11
95.25
  20
-108.0124999999999886
  21
-108.0124999999999886
  40
1.
  41
1.
  50
0.00000000
  51
0.00000000
  71
0
  72
1
  73
2
  1
~
  0
TEXT
  7
KICAD
  8
BLACK
  10
95.25
  11
95.25
  20
-100.0124999999999886
  21
-100.0124999999999886
  40
1.
  41
1.
  50
0.00000000
  51
0.00000000
  71
0
  72
1
  73
2
  1
S15
  0
TEXT
  7
KICAD
  8
BLACK
  10
95.25
  11
95.25
  20
-88.9624999999999915
  21
-88.9624999999999915
  40
1.
  41
1.
  50
0.00000000
  51
0.00000000
  71
0
  72
1
  73
2
  1
~
  0
TEXT
  7
KICAD
  8
BLACK
  10
95.25
  11
95.25
  20
-80.9624999999999915
  21
-80.9624999999999915
  40
1.
  41
1.
  50
0.00000000
  51
0.00000000
  71
0
  72
1
  73
2
  1
S9
  0
TEXT
  7
KICAD
  8
BLACK
  10
95.25
  11
95.25
  20
-69.9124999999999943
  21
-69.9124999999999943
  40
1.
  41
1.
  50
0.00000000
  51
0.00000000
  71
0
  72
1
  73
2
  1
~
  0
TEXT
  7
KICAD
  8
BLACK
  10
95.25
  11
95.25
  20
-61.9124999999999943
  21
-61.9124999999999943
  40
1.
  41
1.
  50
0.00000000
  51
0.00000000
  71
0
  72
1
  73
2
  1
S3
  0
TEXT
  7
KICAD
  8
BLACK
  10
95.25
  11
95.25
  20
-127.0625
  21
-127.0625
  40
1.
  41
1.
  50
0.00000000
  51
0.00000000
  71
0
  72
1
  73
2
  1
~
  0
TEXT
  7
KICAD
  8
BLACK
  10
95.25
  11
95.25
  20
-119.0625
  21
-119.0625
  40
1.
  41
1.
  50
0.00000000
  51
0.00000000
  71
0
  72
1
  73
2
  1
S21
  0
TEXT
  7
KICAD
  8
BLACK
  10
114.2999999999999972
  11
114.2999999999999972
  20
-84.2000000000000028
  21
-84.2000000000000028
  40
1.
  41
1.
  50
0.00000000
  51
0.00000000
  71
0
  72
1
  73
2
  1
~
  0
TEXT
  7
KICAD
  8
BLACK
  10
114.2999999999999972
  11
114.2999999999999972
  20
-76.2000000000000028
  21
-76.2000000000000028
  40
1.
  41
1.
  50
0.00000000
  51
0.00000000
  71
0
  72
1
  73
2
  1
S10
  0
TEXT
  7
KICAD
  8
BLACK
  10
192.4927979999999934
  11
192.4927979999999934
  20
-172.1686289999999815
  21
-172.1686289999999815
  40
1.
  41
1.
  50
-30.00000000
  51
0.00000000
  71
0
  72
1
  73
2
  1
~
  0
TEXT
  7
KICAD
  8
BLACK
  10
196.4927979999999934
  11
196.4927979999999934
  20
-165.2404259999999852
  21
-165.2404259999999852
  40
1.
  41
1.
  50
-30.00000000
  51
0.00000000
  71
0
  72
1
  73
2
  1
S32
  0
TEXT
  7
KICAD
  8
BLACK
  10
76.2000000000000028
  11
76.2000000000000028
  20
-93.7249999999999943
  21
-93.7249999999999943
  40
1.
  41
1.
  50
0.00000000
  51
0.00000000
  71
0
  72
1
  73
2
  1
~
  0
TEXT
  7
KICAD
  8
BLACK
  10
76.2000000000000028
  11
76.2000000000000028
  20
-85.7249999999999943
  21
-85.7249999999999943
  40
1.
  41
1.
  50
0.00000000
  51
0.00000000
  71
0
  72
1
  73
2
  1
S8
  0
TEXT
  7
KICAD
  8
BLACK
  10
152.4000000000000057
  11
152.4000000000000057
  20
-131.8249999999999886
  21
-131.8249999999999886
  40
1.
  41
1.
  50
0.00000000
  51
0.00000000
  71
0
  72
1
  73
2
  1
~
  0
TEXT
  7
KICAD
  8
BLACK
  10
152.4000000000000057
  11
152.4000000000000057
  20
-123.8249999999999886
  21
-123.8249999999999886
  40
1.
  41
1.
  50
0.00000000
  51
0.00000000
  71
0
  72
1
  73
2
  1
S24
  0
TEXT
  7
KICAD
  8
BLACK
  10
133.3499999999999943
  11
133.3499999999999943
  20
-88.9624999999999915
  21
-88.9624999999999915
  40
1.
  41
1.
  50
0.00000000
  51
0.00000000
  71
0
  72
1
  73
2
  1
~
  0
TEXT
  7
KICAD
  8
BLACK
  10
133.3499999999999943
  11
133.3499999999999943
  20
-80.9624999999999915
  21
-80.9624999999999915
  40
1.
  41
1.
  50
0.00000000
  51
0.00000000
  71
0
  72
1
  73
2
  1
S11
  0
TEXT
  7
KICAD
  8
BLACK
  10
182.9677979999999877
  11
182.9677979999999877
  20
-188.6664129999999773
  21
-188.6664129999999773
  40
1.
  41
1.
  50
-30.00000000
  51
0.00000000
  71
0
  72
1
  73
2
  1
~
  0
TEXT
  7
KICAD
  8
BLACK
  10
186.9677979999999877
  11
186.9677979999999877
  20
-181.7382099999999809
  21
-181.7382099999999809
  40
1.
  41
1.
  50
-30.00000000
  51
0.00000000
  71
0
  72
1
  73
2
  1
S35
  0
TEXT
  7
KICAD
  8
BLACK
  10
202.0177979999999991
  11
202.0177979999999991
  20
-155.6708449999999857
  21
-155.6708449999999857
  40
1.
  41
1.
  50
-30.00000000
  51
0.00000000
  71
0
  72
1
  73
2
  1
~
  0
TEXT
  7
KICAD
  8
BLACK
  10
206.0177979999999991
  11
206.0177979999999991
  20
-148.7426419999999894
  21
-148.7426419999999894
  40
1.
  41
1.
  50
-30.00000000
  51
0.00000000
  71
0
  72
1
  73
2
  1
S30
  0
TEXT
  7
KICAD
  8
BLACK
  10
95.25
  11
95.25
  20
-146.1124999999999829
  21
-146.1124999999999829
  40
1.
  41
1.
  50
0.00000000
  51
0.00000000
  71
0
  72
1
  73
2
  1
~
  0
TEXT
  7
KICAD
  8
BLACK
  10
95.25
  11
95.25
  20
-138.1124999999999829
  21
-138.1124999999999829
  40
1.
  41
1.
  50
0.00000000
  51
0.00000000
  71
0
  72
1
  73
2
  1
S27
  0
TEXT
  7
KICAD
  8
BLACK
  10
183.1387639999999806
  11
183.1387639999999806
  20
-150.2702909999999861
  21
-150.2702909999999861
  40
1.
  41
1.
  50
-30.00000000
  51
0.00000000
  71
0
  72
1
  73
2
  1
~
  0
TEXT
  7
KICAD
  8
BLACK
  10
187.1387639999999806
  11
187.1387639999999806
  20
-143.3420879999999897
  21
-143.3420879999999897
  40
1.
  41
1.
  50
-30.00000000
  51
0.00000000
  71
0
  72
1
  73
2
  1
S31
0
LINE
8
BLACK
6
CONTINUOUS
10
126.3499999999999943
20
-131.1124999999999829
11
126.3499999999999943
21
-145.1124999999999829
0
LINE
8
BLACK
6
CONTINUOUS
10
126.3499999999999943
20
-145.1124999999999829
11
140.3499999999999943
21
-145.1124999999999829
0
LINE
8
BLACK
6
CONTINUOUS
10
140.3499999999999943
20
-131.1124999999999829
11
126.3499999999999943
21
-131.1124999999999829
0
LINE
8
BLACK
6
CONTINUOUS
10
140.3499999999999943
20
-145.1124999999999829
11
140.3499999999999943
21
-131.1124999999999829
0
LINE
8
BLACK
6
CONTINUOUS
10
145.4000000000000057
20
-59.6749999999999972
11
145.4000000000000057
21
-73.6749999999999972
0
LINE
8
BLACK
6
CONTINUOUS
10
145.4000000000000057
20
-73.6749999999999972
11
159.4000000000000057
21
-73.6749999999999972
0
LINE
8
BLACK
6
CONTINUOUS
10
159.4000000000000057
20
-59.6749999999999972
11
145.4000000000000057
21
-59.6749999999999972
0
LINE
8
BLACK
6
CONTINUOUS
10
159.4000000000000057
20
-73.6749999999999972
11
159.4000000000000057
21
-59.6749999999999972
0
LINE
8
BLACK
6
CONTINUOUS
10
69.2000000000000028
20
-116.8249999999999886
11
69.2000000000000028
21
-130.8249999999999886
0
LINE
8
BLACK
6
CONTINUOUS
10
69.2000000000000028
20
-130.8249999999999886
11
83.2000000000000028
21
-130.8249999999999886
0
LINE
8
BLACK
6
CONTINUOUS
10
83.2000000000000028
20
-116.8249999999999886
11
69.2000000000000028
21
-116.8249999999999886
0
LINE
8
BLACK
6
CONTINUOUS
10
83.2000000000000028
20
-130.8249999999999886
11
83.2000000000000028
21
-116.8249999999999886
0
LINE
8
BLACK
6
CONTINUOUS
10
47.7687499999999972
20
-78.7249999999999943
11
47.7687499999999972
21
-92.7249999999999943
0
LINE
8
BLACK
6
CONTINUOUS
10
47.7687499999999972
20
-92.7249999999999943
11
61.7687499999999972
21
-92.7249999999999943
0
LINE
8
BLACK
6
CONTINUOUS
10
61.7687499999999972
20
-78.7249999999999943
11
47.7687499999999972
21
-78.7249999999999943
0
LINE
8
BLACK
6
CONTINUOUS
10
61.7687499999999972
20
-92.7249999999999943
11
61.7687499999999972
21
-78.7249999999999943
0
LINE
8
BLACK
6
CONTINUOUS
10
170.4099999999999966
20
-57.9299999999999997
11
191.4099999999999966
21
-57.9299999999999997
0
LINE
8
BLACK
6
CONTINUOUS
10
170.4099999999999966
20
-59.2299999999999969
11
171.7099999999999795
21
-57.9299999999999997
0
LINE
8
BLACK
6
CONTINUOUS
10
170.4099999999999966
20
-108.9299999999999926
11
170.4099999999999966
21
-57.9299999999999997
0
LINE
8
BLACK
6
CONTINUOUS
10
191.4099999999999966
20
-57.9299999999999997
11
191.4099999999999966
21
-108.9299999999999926
0
LINE
8
BLACK
6
CONTINUOUS
10
191.4099999999999966
20
-108.9299999999999926
11
170.4099999999999966
21
-108.9299999999999926
0
LINE
8
BLACK
6
CONTINUOUS
10
145.4000000000000057
20
-97.7749999999999915
11
145.4000000000000057
21
-111.7749999999999915
0
LINE
8
BLACK
6
CONTINUOUS
10
145.4000000000000057
20
-111.7749999999999915
11
159.4000000000000057
21
-111.7749999999999915
0
LINE
8
BLACK
6
CONTINUOUS
10
159.4000000000000057
20
-97.7749999999999915
11
145.4000000000000057
21
-97.7749999999999915
0
LINE
8
BLACK
6
CONTINUOUS
10
159.4000000000000057
20
-111.7749999999999915
11
159.4000000000000057
21
-97.7749999999999915
0
LINE
8
BLACK
6
CONTINUOUS
10
107.2999999999999972
20
-107.2999999999999972
11
107.2999999999999972
21
-121.2999999999999972
0
LINE
8
BLACK
6
CONTINUOUS
10
107.2999999999999972
20
-121.2999999999999972
11
121.2999999999999972
21
-121.2999999999999972
0
LINE
8
BLACK
6
CONTINUOUS
10
121.2999999999999972
20
-107.2999999999999972
11
107.2999999999999972
21
-107.2999999999999972
0
LINE
8
BLACK
6
CONTINUOUS
10
121.2999999999999972
20
-121.2999999999999972
11
121.2999999999999972
21
-107.2999999999999972
0
LINE
8
BLACK
6
CONTINUOUS
10
69.2000000000000028
20
-97.7749999999999915
11
69.2000000000000028
21
-111.7749999999999915
0
LINE
8
BLACK
6
CONTINUOUS
10
69.2000000000000028
20
-111.7749999999999915
11
83.2000000000000028
21
-111.7749999999999915
0
LINE
8
BLACK
6
CONTINUOUS
10
83.2000000000000028
20
-97.7749999999999915
11
69.2000000000000028
21
-97.7749999999999915
0
LINE
8
BLACK
6
CONTINUOUS
10
83.2000000000000028
20
-111.7749999999999915
11
83.2000000000000028
21
-97.7749999999999915
0
LINE
8
BLACK
6
CONTINUOUS
10
47.7687499999999972
20
-97.7749999999999915
11
47.7687499999999972
21
-111.7749999999999915
0
LINE
8
BLACK
6
CONTINUOUS
10
47.7687499999999972
20
-111.7749999999999915
11
61.7687499999999972
21
-111.7749999999999915
0
LINE
8
BLACK
6
CONTINUOUS
10
61.7687499999999972
20
-97.7749999999999915
11
47.7687499999999972
21
-97.7749999999999915
0
LINE
8
BLACK
6
CONTINUOUS
10
61.7687499999999972
20
-111.7749999999999915
11
61.7687499999999972
21
-97.7749999999999915
0
LINE
8
BLACK
6
CONTINUOUS
10
149.172551999999996
20
-157.0014960000000031
11
161.2969080000000019
21
-164.0014960000000031
0
LINE
8
BLACK
6
CONTINUOUS
10
156.172551999999996
20
-144.8771399999999971
11
149.172551999999996
21
-157.0014960000000031
0
LINE
8
BLACK
6
CONTINUOUS
10
161.2969080000000019
20
-164.0014960000000031
11
168.2969080000000019
21
-151.8771399999999971
0
LINE
8
BLACK
6
CONTINUOUS
10
168.2969080000000019
20
-151.8771399999999971
11
156.172551999999996
21
-144.8771399999999971
0
LINE
8
BLACK
6
CONTINUOUS
10
69.2000000000000028
20
-59.6749999999999972
11
69.2000000000000028
21
-73.6749999999999972
0
LINE
8
BLACK
6
CONTINUOUS
10
69.2000000000000028
20
-73.6749999999999972
11
83.2000000000000028
21
-73.6749999999999972
0
LINE
8
BLACK
6
CONTINUOUS
10
83.2000000000000028
20
-59.6749999999999972
11
69.2000000000000028
21
-59.6749999999999972
0
LINE
8
BLACK
6
CONTINUOUS
10
83.2000000000000028
20
-73.6749999999999972
11
83.2000000000000028
21
-59.6749999999999972
0
LINE
8
BLACK
6
CONTINUOUS
10
69.2000000000000028
20
-135.875
11
69.2000000000000028
21
-149.875
0
LINE
8
BLACK
6
CONTINUOUS
10
69.2000000000000028
20
-149.875
11
83.2000000000000028
21
-149.875
0
LINE
8
BLACK
6
CONTINUOUS
10
83.2000000000000028
20
-135.875
11
69.2000000000000028
21
-135.875
0
LINE
8
BLACK
6
CONTINUOUS
10
83.2000000000000028
20
-149.875
11
83.2000000000000028
21
-135.875
0
LINE
8
BLACK
6
CONTINUOUS
10
145.4000000000000057
20
-78.7249999999999943
11
145.4000000000000057
21
-92.7249999999999943
0
LINE
8
BLACK
6
CONTINUOUS
10
145.4000000000000057
20
-92.7249999999999943
11
159.4000000000000057
21
-92.7249999999999943
0
LINE
8
BLACK
6
CONTINUOUS
10
159.4000000000000057
20
-78.7249999999999943
11
145.4000000000000057
21
-78.7249999999999943
0
LINE
8
BLACK
6
CONTINUOUS
10
159.4000000000000057
20
-92.7249999999999943
11
159.4000000000000057
21
-78.7249999999999943
0
LINE
8
BLACK
6
CONTINUOUS
10
126.3499999999999943
20
-93.0125000000000028
11
126.3499999999999943
21
-107.0124999999999886
0
LINE
8
BLACK
6
CONTINUOUS
10
126.3499999999999943
20
-107.0124999999999886
11
140.3499999999999943
21
-107.0124999999999886
0
LINE
8
BLACK
6
CONTINUOUS
10
140.3499999999999943
20
-93.0125000000000028
11
126.3499999999999943
21
-93.0125000000000028
0
LINE
8
BLACK
6
CONTINUOUS
10
140.3499999999999943
20
-107.0124999999999886
11
140.3499999999999943
21
-93.0125000000000028
0
LINE
8
BLACK
6
CONTINUOUS
10
107.2999999999999972
20
-50.1499999999999986
11
107.2999999999999972
21
-64.1499999999999915
0
LINE
8
BLACK
6
CONTINUOUS
10
107.2999999999999972
20
-64.1499999999999915
11
121.2999999999999972
21
-64.1499999999999915
0
LINE
8
BLACK
6
CONTINUOUS
10
121.2999999999999972
20
-50.1499999999999986
11
107.2999999999999972
21
-50.1499999999999986
0
LINE
8
BLACK
6
CONTINUOUS
10
121.2999999999999972
20
-64.1499999999999915
11
121.2999999999999972
21
-50.1499999999999986
0
LINE
8
BLACK
6
CONTINUOUS
10
47.7687499999999972
20
-59.6749999999999972
11
47.7687499999999972
21
-73.6749999999999972
0
LINE
8
BLACK
6
CONTINUOUS
10
47.7687499999999972
20
-73.6749999999999972
11
61.7687499999999972
21
-73.6749999999999972
0
LINE
8
BLACK
6
CONTINUOUS
10
61.7687499999999972
20
-59.6749999999999972
11
47.7687499999999972
21
-59.6749999999999972
0
LINE
8
BLACK
6
CONTINUOUS
10
61.7687499999999972
20
-73.6749999999999972
11
61.7687499999999972
21
-59.6749999999999972
0
LINE
8
BLACK
6
CONTINUOUS
10
165.6703359999999918
20
-166.5264959999999803
11
177.7946919999999977
21
-173.5264959999999803
0
LINE
8
BLACK
6
CONTINUOUS
10
172.6703359999999918
20
-154.4021400000000028
11
165.6703359999999918
21
-166.5264959999999803
0
LINE
8
BLACK
6
CONTINUOUS
10
177.7946919999999977
20
-173.5264959999999803
11
184.7946919999999977
21
-161.4021400000000028
0
LINE
8
BLACK
6
CONTINUOUS
10
184.7946919999999977
20
-161.4021400000000028
11
172.6703359999999918
21
-154.4021400000000028
0
LINE
8
BLACK
6
CONTINUOUS
10
107.2999999999999972
20
-88.25
11
107.2999999999999972
21
-102.25
0
LINE
8
BLACK
6
CONTINUOUS
10
107.2999999999999972
20
-102.25
11
121.2999999999999972
21
-102.25
0
LINE
8
BLACK
6
CONTINUOUS
10
121.2999999999999972
20
-88.25
11
107.2999999999999972
21
-88.25
0
LINE
8
BLACK
6
CONTINUOUS
10
121.2999999999999972
20
-102.25
11
121.2999999999999972
21
-88.25
0
LINE
8
BLACK
6
CONTINUOUS
10
126.3499999999999943
20
-54.9124999999999943
11
126.3499999999999943
21
-68.9124999999999943
0
LINE
8
BLACK
6
CONTINUOUS
10
126.3499999999999943
20
-68.9124999999999943
11
140.3499999999999943
21
-68.9124999999999943
0
LINE
8
BLACK
6
CONTINUOUS
10
140.3499999999999943
20
-54.9124999999999943
11
126.3499999999999943
21
-54.9124999999999943
0
LINE
8
BLACK
6
CONTINUOUS
10
140.3499999999999943
20
-68.9124999999999943
11
140.3499999999999943
21
-54.9124999999999943
0
LINE
8
BLACK
6
CONTINUOUS
10
47.7687499999999972
20
-135.875
11
47.7687499999999972
21
-149.875
0
LINE
8
BLACK
6
CONTINUOUS
10
47.7687499999999972
20
-149.875
11
61.7687499999999972
21
-149.875
0
LINE
8
BLACK
6
CONTINUOUS
10
61.7687499999999972
20
-135.875
11
47.7687499999999972
21
-135.875
0
LINE
8
BLACK
6
CONTINUOUS
10
61.7687499999999972
20
-149.875
11
61.7687499999999972
21
-135.875
0
LINE
8
BLACK
6
CONTINUOUS
10
126.3499999999999943
20
-112.0625
11
126.3499999999999943
21
-126.0625
0
LINE
8
BLACK
6
CONTINUOUS
10
126.3499999999999943
20
-126.0625
11
140.3499999999999943
21
-126.0625
0
LINE
8
BLACK
6
CONTINUOUS
10
140.3499999999999943
20
-112.0625
11
126.3499999999999943
21
-112.0625
0
LINE
8
BLACK
6
CONTINUOUS
10
140.3499999999999943
20
-126.0625
11
140.3499999999999943
21
-112.0625
0
LINE
8
BLACK
6
CONTINUOUS
10
47.7687499999999972
20
-116.8249999999999886
11
47.7687499999999972
21
-130.8249999999999886
0
LINE
8
BLACK
6
CONTINUOUS
10
47.7687499999999972
20
-130.8249999999999886
11
61.7687499999999972
21
-130.8249999999999886
0
LINE
8
BLACK
6
CONTINUOUS
10
61.7687499999999972
20
-116.8249999999999886
11
47.7687499999999972
21
-116.8249999999999886
0
LINE
8
BLACK
6
CONTINUOUS
10
61.7687499999999972
20
-130.8249999999999886
11
61.7687499999999972
21
-116.8249999999999886
0
LINE
8
BLACK
6
CONTINUOUS
10
107.2999999999999972
20
-126.3499999999999943
11
107.2999999999999972
21
-140.3499999999999943
0
LINE
8
BLACK
6
CONTINUOUS
10
107.2999999999999972
20
-140.3499999999999943
11
121.2999999999999972
21
-140.3499999999999943
0
LINE
8
BLACK
6
CONTINUOUS
10
121.2999999999999972
20
-126.3499999999999943
11
107.2999999999999972
21
-126.3499999999999943
0
LINE
8
BLACK
6
CONTINUOUS
10
121.2999999999999972
20
-140.3499999999999943
11
121.2999999999999972
21
-126.3499999999999943
0
LINE
8
BLACK
6
CONTINUOUS
10
88.25
20
-93.0125000000000028
11
88.25
21
-107.0124999999999886
0
LINE
8
BLACK
6
CONTINUOUS
10
88.25
20
-107.0124999999999886
11
102.25
21
-107.0124999999999886
0
LINE
8
BLACK
6
CONTINUOUS
10
102.25
20
-93.0125000000000028
11
88.25
21
-93.0125000000000028
0
LINE
8
BLACK
6
CONTINUOUS
10
102.25
20
-107.0124999999999886
11
102.25
21
-93.0125000000000028
0
LINE
8
BLACK
6
CONTINUOUS
10
88.25
20
-73.9624999999999915
11
88.25
21
-87.9624999999999915
0
LINE
8
BLACK
6
CONTINUOUS
10
88.25
20
-87.9624999999999915
11
102.25
21
-87.9624999999999915
0
LINE
8
BLACK
6
CONTINUOUS
10
102.25
20
-73.9624999999999915
11
88.25
21
-73.9624999999999915
0
LINE
8
BLACK
6
CONTINUOUS
10
102.25
20
-87.9624999999999915
11
102.25
21
-73.9624999999999915
0
LINE
8
BLACK
6
CONTINUOUS
10
88.25
20
-54.9124999999999943
11
88.25
21
-68.9124999999999943
0
LINE
8
BLACK
6
CONTINUOUS
10
88.25
20
-68.9124999999999943
11
102.25
21
-68.9124999999999943
0
LINE
8
BLACK
6
CONTINUOUS
10
102.25
20
-54.9124999999999943
11
88.25
21
-54.9124999999999943
0
LINE
8
BLACK
6
CONTINUOUS
10
102.25
20
-68.9124999999999943
11
102.25
21
-54.9124999999999943
0
LINE
8
BLACK
6
CONTINUOUS
10
88.25
20
-112.0625
11
88.25
21
-126.0625
0
LINE
8
BLACK
6
CONTINUOUS
10
88.25
20
-126.0625
11
102.25
21
-126.0625
0
LINE
8
BLACK
6
CONTINUOUS
10
102.25
20
-112.0625
11
88.25
21
-112.0625
0
LINE
8
BLACK
6
CONTINUOUS
10
102.25
20
-126.0625
11
102.25
21
-112.0625
0
LINE
8
BLACK
6
CONTINUOUS
10
107.2999999999999972
20
-69.2000000000000028
11
107.2999999999999972
21
-83.2000000000000028
0
LINE
8
BLACK
6
CONTINUOUS
10
107.2999999999999972
20
-83.2000000000000028
11
121.2999999999999972
21
-83.2000000000000028
0
LINE
8
BLACK
6
CONTINUOUS
10
121.2999999999999972
20
-69.2000000000000028
11
107.2999999999999972
21
-69.2000000000000028
0
LINE
8
BLACK
6
CONTINUOUS
10
121.2999999999999972
20
-83.2000000000000028
11
121.2999999999999972
21
-69.2000000000000028
0
LINE
8
BLACK
6
CONTINUOUS
10
186.9306200000000047
20
-167.8026040000000023
11
199.0549759999999822
21
-174.8026040000000023
0
LINE
8
BLACK
6
CONTINUOUS
10
193.9306200000000047
20
-155.6782479999999964
11
186.9306200000000047
21
-167.8026040000000023
0
LINE
8
BLACK
6
CONTINUOUS
10
199.0549759999999822
20
-174.8026040000000023
11
206.0549759999999822
21
-162.6782479999999964
0
LINE
8
BLACK
6
CONTINUOUS
10
206.0549759999999822
20
-162.6782479999999964
11
193.9306200000000047
21
-155.6782479999999964
0
LINE
8
BLACK
6
CONTINUOUS
10
69.2000000000000028
20
-78.7249999999999943
11
69.2000000000000028
21
-92.7249999999999943
0
LINE
8
BLACK
6
CONTINUOUS
10
69.2000000000000028
20
-92.7249999999999943
11
83.2000000000000028
21
-92.7249999999999943
0
LINE
8
BLACK
6
CONTINUOUS
10
83.2000000000000028
20
-78.7249999999999943
11
69.2000000000000028
21
-78.7249999999999943
0
LINE
8
BLACK
6
CONTINUOUS
10
83.2000000000000028
20
-92.7249999999999943
11
83.2000000000000028
21
-78.7249999999999943
0
LINE
8
BLACK
6
CONTINUOUS
10
145.4000000000000057
20
-116.8249999999999886
11
145.4000000000000057
21
-130.8249999999999886
0
LINE
8
BLACK
6
CONTINUOUS
10
145.4000000000000057
20
-130.8249999999999886
11
159.4000000000000057
21
-130.8249999999999886
0
LINE
8
BLACK
6
CONTINUOUS
10
159.4000000000000057
20
-116.8249999999999886
11
145.4000000000000057
21
-116.8249999999999886
0
LINE
8
BLACK
6
CONTINUOUS
10
159.4000000000000057
20
-130.8249999999999886
11
159.4000000000000057
21
-116.8249999999999886
0
LINE
8
BLACK
6
CONTINUOUS
10
126.3499999999999943
20
-73.9624999999999915
11
126.3499999999999943
21
-87.9624999999999915
0
LINE
8
BLACK
6
CONTINUOUS
10
126.3499999999999943
20
-87.9624999999999915
11
140.3499999999999943
21
-87.9624999999999915
0
LINE
8
BLACK
6
CONTINUOUS
10
140.3499999999999943
20
-73.9624999999999915
11
126.3499999999999943
21
-73.9624999999999915
0
LINE
8
BLACK
6
CONTINUOUS
10
140.3499999999999943
20
-87.9624999999999915
11
140.3499999999999943
21
-73.9624999999999915
0
LINE
8
BLACK
6
CONTINUOUS
10
177.405619999999999
20
-184.3003879999999981
11
189.5299760000000049
21
-191.3003879999999981
0
LINE
8
BLACK
6
CONTINUOUS
10
184.405619999999999
20
-172.1760319999999922
11
177.405619999999999
21
-184.3003879999999981
0
LINE
8
BLACK
6
CONTINUOUS
10
189.5299760000000049
20
-191.3003879999999981
11
196.5299760000000049
21
-179.1760319999999922
0
LINE
8
BLACK
6
CONTINUOUS
10
196.5299760000000049
20
-179.1760319999999922
11
184.405619999999999
21
-172.1760319999999922
0
LINE
8
BLACK
6
CONTINUOUS
10
196.4556199999999819
20
-151.3048200000000065
11
208.5799759999999878
21
-158.3048200000000065
0
LINE
8
BLACK
6
CONTINUOUS
10
203.4556199999999819
20
-139.1804640000000006
11
196.4556199999999819
21
-151.3048200000000065
0
LINE
8
BLACK
6
CONTINUOUS
10
208.5799759999999878
20
-158.3048200000000065
11
215.5799759999999878
21
-146.1804640000000006
0
LINE
8
BLACK
6
CONTINUOUS
10
215.5799759999999878
20
-146.1804640000000006
11
203.4556199999999819
21
-139.1804640000000006
0
LINE
8
BLACK
6
CONTINUOUS
10
88.25
20
-131.1124999999999829
11
88.25
21
-145.1124999999999829
0
LINE
8
BLACK
6
CONTINUOUS
10
88.25
20
-145.1124999999999829
11
102.25
21
-145.1124999999999829
0
LINE
8
BLACK
6
CONTINUOUS
10
102.25
20
-131.1124999999999829
11
88.25
21
-131.1124999999999829
0
LINE
8
BLACK
6
CONTINUOUS
10
102.25
20
-145.1124999999999829
11
102.25
21
-131.1124999999999829
0
LINE
8
BLACK
6
CONTINUOUS
10
177.5765859999999918
20
-145.9042660000000069
11
189.7009419999999977
21
-152.9042660000000069
0
LINE
8
BLACK
6
CONTINUOUS
10
184.5765859999999918
20
-133.779910000000001
11
177.5765859999999918
21
-145.9042660000000069
0
LINE
8
BLACK
6
CONTINUOUS
10
189.7009419999999977
20
-152.9042660000000069
11
196.7009419999999977
21
-140.779910000000001
0
LINE
8
BLACK
6
CONTINUOUS
10
196.7009419999999977
20
-140.779910000000001
11
184.5765859999999918
21
-133.779910000000001
  0
ENDSEC
  0
EOF
