  0
SECTION
  2
HEADER
  9
$ANGBASE
  50
0.0
  9
$ANGDIR
  70
1
  9
$MEASUREMENT
  70
1
  0
ENDSEC
  0
SECTION
  2
TABLES
  0
TABLE
  2
LTYPE
  70
4
  0
LTYPE
  5
40F
  2
CONTINUOUS
  70
0
  3
Solid line
  72
65
  73
0
  40
0.0
  0
LTYPE
  5
410
  2
DASHDOT
 70
0
  3
Dash Dot ____ _ ____ _
 72
65
 73
4
 40
2.0
 49
1.25
 49
-0.25
 49
0.25
 49
-0.25
  0
LTYPE
  5
411
  2
DASHED
 70
0
  3
Dashed __ __ __ __ __
 72
65
 73
2
 40
0.75
 49
0.5
 49
-0.25
  0
LTYPE
  5
43B
  2
DOTTED
 70
0
  3
Dotted .  .  .  .
 72
65
 73
2
 40
0.2
 49
0.0
 49
-0.2
  0
ENDTAB
  0
TABLE
  2
STYLE
  70
4
  0
STYLE
  2
KICAD
  70
0
  40
0
  41
1
  42
1
  50
0
  71
0
  3
isocp.shx
  0
STYLE
  2
KICADB
  70
0
  40
0
  41
1
  42
1
  50
0
  71
0
  3
isocp.shx
  0
STYLE
  2
KICADI
  70
0
  40
0
  41
1
  42
1
  50
15
  71
0
  3
isocp.shx
  0
STYLE
  2
KICADBI
  70
0
  40
0
  41
1
  42
1
  50
15
  71
0
  3
isocp.shx
  0
ENDTAB
  0
TABLE
  2
LAYER
  70
1
  0
LAYER
  2
BLACK
  70
0
  62
7
  6
CONTINUOUS
  0
ENDTAB
  0
ENDSEC
  0
SECTION
  2
ENTITIES
  0
TEXT
  7
KICAD
  8
BLACK
  10
283.4152699999999641
  11
283.4152699999999641
  20
-161.3675209999999822
  21
-161.3675209999999822
  40
1.
  41
1.
  50
30.00000000
  51
0.00000000
  71
0
  72
1
  73
2
  1
~
  0
TEXT
  7
KICAD
  8
BLACK
  10
279.4152699999999641
  11
279.4152699999999641
  20
-154.4393179999999859
  21
-154.4393179999999859
  40
1.
  41
1.
  50
30.00000000
  51
0.00000000
  71
0
  72
1
  73
2
  1
S40
  0
TEXT
  7
KICAD
  8
BLACK
  10
266.9174859999999967
  11
266.9174859999999967
  20
-170.8925209999999879
  21
-170.8925209999999879
  40
1.
  41
1.
  50
30.00000000
  51
0.00000000
  71
0
  72
1
  73
2
  1
~
  0
TEXT
  7
KICAD
  8
BLACK
  10
262.9174859999999967
  11
262.9174859999999967
  20
-163.9643179999999916
  21
-163.9643179999999916
  40
1.
  41
1.
  50
30.00000000
  51
0.00000000
  71
0
  72
1
  73
2
  1
S39
  0
TEXT
  7
KICAD
  8
BLACK
  10
402.4312499999999773
  11
402.4312499999999773
  20
-150.875
  21
-150.875
  40
1.
  41
1.
  50
0.00000000
  51
0.00000000
  71
0
  72
1
  73
2
  1
~
  0
TEXT
  7
KICAD
  8
BLACK
  10
402.4312499999999773
  11
402.4312499999999773
  20
-142.875
  21
-142.875
  40
1.
  41
1.
  50
0.00000000
  51
0.00000000
  71
0
  72
1
  73
2
  1
S35
  0
TEXT
  7
KICAD
  8
BLACK
  10
402.4312499999999773
  11
402.4312499999999773
  20
-131.8249999999999886
  21
-131.8249999999999886
  40
1.
  41
1.
  50
0.00000000
  51
0.00000000
  71
0
  72
1
  73
2
  1
~
  0
TEXT
  7
KICAD
  8
BLACK
  10
402.4312499999999773
  11
402.4312499999999773
  20
-123.8249999999999886
  21
-123.8249999999999886
  40
1.
  41
1.
  50
0.00000000
  51
0.00000000
  71
0
  72
1
  73
2
  1
S28
  0
TEXT
  7
KICAD
  8
BLACK
  10
402.4312499999999773
  11
402.4312499999999773
  20
-112.7749999999999915
  21
-112.7749999999999915
  40
1.
  41
1.
  50
0.00000000
  51
0.00000000
  71
0
  72
1
  73
2
  1
~
  0
TEXT
  7
KICAD
  8
BLACK
  10
402.4312499999999773
  11
402.4312499999999773
  20
-104.7749999999999915
  21
-104.7749999999999915
  40
1.
  41
1.
  50
0.00000000
  51
0.00000000
  71
0
  72
1
  73
2
  1
S21
  0
TEXT
  7
KICAD
  8
BLACK
  10
402.4312499999999773
  11
402.4312499999999773
  20
-93.7249999999999943
  21
-93.7249999999999943
  40
1.
  41
1.
  50
0.00000000
  51
0.00000000
  71
0
  72
1
  73
2
  1
~
  0
TEXT
  7
KICAD
  8
BLACK
  10
402.4312499999999773
  11
402.4312499999999773
  20
-85.7249999999999943
  21
-85.7249999999999943
  40
1.
  41
1.
  50
0.00000000
  51
0.00000000
  71
0
  72
1
  73
2
  1
S14
  0
TEXT
  7
KICAD
  8
BLACK
  10
402.4312499999999773
  11
402.4312499999999773
  20
-74.6749999999999972
  21
-74.6749999999999972
  40
1.
  41
1.
  50
0.00000000
  51
0.00000000
  71
0
  72
1
  73
2
  1
~
  0
TEXT
  7
KICAD
  8
BLACK
  10
402.4312499999999773
  11
402.4312499999999773
  20
-66.6749999999999972
  21
-66.6749999999999972
  40
1.
  41
1.
  50
0.00000000
  51
0.00000000
  71
0
  72
1
  73
2
  1
S7
  0
TEXT
  7
KICAD
  8
BLACK
  10
237.8874999999999886
  11
237.8874999999999886
  20
-114.
  21
-114.
  40
1.
  41
1.
  50
90.00000000
  51
0.00000000
  71
0
  72
1
  73
2
  1
TRRS
  0
TEXT
  7
KICAD
  8
BLACK
  10
254.8874999999999886
  11
254.8874999999999886
  20
-113.75
  21
-113.75
  40
0.7
  41
1.
  50
90.00000000
  51
0.00000000
  71
0
  72
1
  73
2
  1
Sleeve
  0
TEXT
  7
KICAD
  8
BLACK
  10
246.7374999999999829
  11
246.7374999999999829
  20
-114.
  21
-114.
  40
0.7
  41
1.
  50
90.00000000
  51
0.00000000
  71
0
  72
1
  73
2
  1
Ring2
  0
TEXT
  7
KICAD
  8
BLACK
  10
253.4874999999999829
  11
253.4874999999999829
  20
-114.
  21
-114.
  40
0.7
  41
1.
  50
90.00000000
  51
0.00000000
  71
0
  72
1
  73
2
  1
Tip
  0
TEXT
  7
KICAD
  8
BLACK
  10
249.7374999999999829
  11
249.7374999999999829
  20
-114.
  21
-114.
  40
0.7
  41
1.
  50
90.00000000
  51
0.00000000
  71
0
  72
1
  73
2
  1
Ring1
  0
TEXT
  7
KICAD
  8
BLACK
  10
255.1822019999999895
  11
255.1822019999999895
  20
-188.6664129999999773
  21
-188.6664129999999773
  40
1.
  41
1.
  50
30.00000000
  51
0.00000000
  71
0
  72
1
  73
2
  1
~
  0
TEXT
  7
KICAD
  8
BLACK
  10
251.1822019999999895
  11
251.1822019999999895
  20
-181.7382099999999809
  21
-181.7382099999999809
  40
1.
  41
1.
  50
30.00000000
  51
0.00000000
  71
0
  72
1
  73
2
  1
S38
  0
TEXT
  7
KICAD
  8
BLACK
  10
255.0112359999999967
  11
255.0112359999999967
  20
-150.2702909999999861
  21
-150.2702909999999861
  40
1.
  41
1.
  50
30.00000000
  51
0.00000000
  71
0
  72
1
  73
2
  1
~
  0
TEXT
  7
KICAD
  8
BLACK
  10
251.0112359999999967
  11
251.0112359999999967
  20
-143.3420879999999897
  21
-143.3420879999999897
  40
1.
  41
1.
  50
30.00000000
  51
0.00000000
  71
0
  72
1
  73
2
  1
S37
  0
TEXT
  7
KICAD
  8
BLACK
  10
245.6572019999999839
  11
245.6572019999999839
  20
-172.1686289999999815
  21
-172.1686289999999815
  40
1.
  41
1.
  50
30.00000000
  51
0.00000000
  71
0
  72
1
  73
2
  1
~
  0
TEXT
  7
KICAD
  8
BLACK
  10
241.6572019999999839
  11
241.6572019999999839
  20
-165.2404259999999852
  21
-165.2404259999999852
  40
1.
  41
1.
  50
30.00000000
  51
0.00000000
  71
0
  72
1
  73
2
  1
S36
  0
TEXT
  7
KICAD
  8
BLACK
  10
381.
  11
381.
  20
-150.875
  21
-150.875
  40
1.
  41
1.
  50
0.00000000
  51
0.00000000
  71
0
  72
1
  73
2
  1
~
  0
TEXT
  7
KICAD
  8
BLACK
  10
381.
  11
381.
  20
-142.875
  21
-142.875
  40
1.
  41
1.
  50
0.00000000
  51
0.00000000
  71
0
  72
1
  73
2
  1
S34
  0
TEXT
  7
KICAD
  8
BLACK
  10
361.9499999999999886
  11
361.9499999999999886
  20
-150.875
  21
-150.875
  40
1.
  41
1.
  50
0.00000000
  51
0.00000000
  71
0
  72
1
  73
2
  1
~
  0
TEXT
  7
KICAD
  8
BLACK
  10
361.9499999999999886
  11
361.9499999999999886
  20
-142.875
  21
-142.875
  40
1.
  41
1.
  50
0.00000000
  51
0.00000000
  71
0
  72
1
  73
2
  1
S33
  0
TEXT
  7
KICAD
  8
BLACK
  10
342.8999999999999773
  11
342.8999999999999773
  20
-146.1124999999999829
  21
-146.1124999999999829
  40
1.
  41
1.
  50
0.00000000
  51
0.00000000
  71
0
  72
1
  73
2
  1
~
  0
TEXT
  7
KICAD
  8
BLACK
  10
342.8999999999999773
  11
342.8999999999999773
  20
-138.1124999999999829
  21
-138.1124999999999829
  40
1.
  41
1.
  50
0.00000000
  51
0.00000000
  71
0
  72
1
  73
2
  1
S32
  0
TEXT
  7
KICAD
  8
BLACK
  10
323.8499999999999659
  11
323.8499999999999659
  20
-141.3499999999999943
  21
-141.3499999999999943
  40
1.
  41
1.
  50
0.00000000
  51
0.00000000
  71
0
  72
1
  73
2
  1
~
  0
TEXT
  7
KICAD
  8
BLACK
  10
323.8499999999999659
  11
323.8499999999999659
  20
-133.3499999999999943
  21
-133.3499999999999943
  40
1.
  41
1.
  50
0.00000000
  51
0.00000000
  71
0
  72
1
  73
2
  1
S31
  0
TEXT
  7
KICAD
  8
BLACK
  10
304.8000000000000114
  11
304.8000000000000114
  20
-146.1124999999999829
  21
-146.1124999999999829
  40
1.
  41
1.
  50
0.00000000
  51
0.00000000
  71
0
  72
1
  73
2
  1
~
  0
TEXT
  7
KICAD
  8
BLACK
  10
304.8000000000000114
  11
304.8000000000000114
  20
-138.1124999999999829
  21
-138.1124999999999829
  40
1.
  41
1.
  50
0.00000000
  51
0.00000000
  71
0
  72
1
  73
2
  1
S30
  0
TEXT
  7
KICAD
  8
BLACK
  10
236.1322019999999782
  11
236.1322019999999782
  20
-155.6708449999999857
  21
-155.6708449999999857
  40
1.
  41
1.
  50
30.00000000
  51
0.00000000
  71
0
  72
1
  73
2
  1
~
  0
TEXT
  7
KICAD
  8
BLACK
  10
232.1322019999999782
  11
232.1322019999999782
  20
-148.7426419999999894
  21
-148.7426419999999894
  40
1.
  41
1.
  50
30.00000000
  51
0.00000000
  71
0
  72
1
  73
2
  1
S29
  0
TEXT
  7
KICAD
  8
BLACK
  10
381.
  11
381.
  20
-131.8249999999999886
  21
-131.8249999999999886
  40
1.
  41
1.
  50
0.00000000
  51
0.00000000
  71
0
  72
1
  73
2
  1
~
  0
TEXT
  7
KICAD
  8
BLACK
  10
381.
  11
381.
  20
-123.8249999999999886
  21
-123.8249999999999886
  40
1.
  41
1.
  50
0.00000000
  51
0.00000000
  71
0
  72
1
  73
2
  1
S27
  0
TEXT
  7
KICAD
  8
BLACK
  10
361.9499999999999886
  11
361.9499999999999886
  20
-131.8249999999999886
  21
-131.8249999999999886
  40
1.
  41
1.
  50
0.00000000
  51
0.00000000
  71
0
  72
1
  73
2
  1
~
  0
TEXT
  7
KICAD
  8
BLACK
  10
361.9499999999999886
  11
361.9499999999999886
  20
-123.8249999999999886
  21
-123.8249999999999886
  40
1.
  41
1.
  50
0.00000000
  51
0.00000000
  71
0
  72
1
  73
2
  1
S26
  0
TEXT
  7
KICAD
  8
BLACK
  10
342.8999999999999773
  11
342.8999999999999773
  20
-127.0625
  21
-127.0625
  40
1.
  41
1.
  50
0.00000000
  51
0.00000000
  71
0
  72
1
  73
2
  1
~
  0
TEXT
  7
KICAD
  8
BLACK
  10
342.8999999999999773
  11
342.8999999999999773
  20
-119.0625
  21
-119.0625
  40
1.
  41
1.
  50
0.00000000
  51
0.00000000
  71
0
  72
1
  73
2
  1
S25
  0
TEXT
  7
KICAD
  8
BLACK
  10
323.8499999999999659
  11
323.8499999999999659
  20
-122.2999999999999972
  21
-122.2999999999999972
  40
1.
  41
1.
  50
0.00000000
  51
0.00000000
  71
0
  72
1
  73
2
  1
~
  0
TEXT
  7
KICAD
  8
BLACK
  10
323.8499999999999659
  11
323.8499999999999659
  20
-114.2999999999999972
  21
-114.2999999999999972
  40
1.
  41
1.
  50
0.00000000
  51
0.00000000
  71
0
  72
1
  73
2
  1
S24
  0
TEXT
  7
KICAD
  8
BLACK
  10
304.8000000000000114
  11
304.8000000000000114
  20
-127.0625
  21
-127.0625
  40
1.
  41
1.
  50
0.00000000
  51
0.00000000
  71
0
  72
1
  73
2
  1
~
  0
TEXT
  7
KICAD
  8
BLACK
  10
304.8000000000000114
  11
304.8000000000000114
  20
-119.0625
  21
-119.0625
  40
1.
  41
1.
  50
0.00000000
  51
0.00000000
  71
0
  72
1
  73
2
  1
S23
  0
TEXT
  7
KICAD
  8
BLACK
  10
285.75
  11
285.75
  20
-131.8249999999999886
  21
-131.8249999999999886
  40
1.
  41
1.
  50
0.00000000
  51
0.00000000
  71
0
  72
1
  73
2
  1
~
  0
TEXT
  7
KICAD
  8
BLACK
  10
285.75
  11
285.75
  20
-123.8249999999999886
  21
-123.8249999999999886
  40
1.
  41
1.
  50
0.00000000
  51
0.00000000
  71
0
  72
1
  73
2
  1
S22
  0
TEXT
  7
KICAD
  8
BLACK
  10
381.
  11
381.
  20
-112.7749999999999915
  21
-112.7749999999999915
  40
1.
  41
1.
  50
0.00000000
  51
0.00000000
  71
0
  72
1
  73
2
  1
~
  0
TEXT
  7
KICAD
  8
BLACK
  10
381.
  11
381.
  20
-104.7749999999999915
  21
-104.7749999999999915
  40
1.
  41
1.
  50
0.00000000
  51
0.00000000
  71
0
  72
1
  73
2
  1
S20
  0
TEXT
  7
KICAD
  8
BLACK
  10
361.9499999999999886
  11
361.9499999999999886
  20
-112.7749999999999915
  21
-112.7749999999999915
  40
1.
  41
1.
  50
0.00000000
  51
0.00000000
  71
0
  72
1
  73
2
  1
~
  0
TEXT
  7
KICAD
  8
BLACK
  10
361.9499999999999886
  11
361.9499999999999886
  20
-104.7749999999999915
  21
-104.7749999999999915
  40
1.
  41
1.
  50
0.00000000
  51
0.00000000
  71
0
  72
1
  73
2
  1
S19
  0
TEXT
  7
KICAD
  8
BLACK
  10
342.8999999999999773
  11
342.8999999999999773
  20
-108.0124999999999886
  21
-108.0124999999999886
  40
1.
  41
1.
  50
0.00000000
  51
0.00000000
  71
0
  72
1
  73
2
  1
~
  0
TEXT
  7
KICAD
  8
BLACK
  10
342.8999999999999773
  11
342.8999999999999773
  20
-100.0124999999999886
  21
-100.0124999999999886
  40
1.
  41
1.
  50
0.00000000
  51
0.00000000
  71
0
  72
1
  73
2
  1
S18
  0
TEXT
  7
KICAD
  8
BLACK
  10
323.8499999999999659
  11
323.8499999999999659
  20
-103.25
  21
-103.25
  40
1.
  41
1.
  50
0.00000000
  51
0.00000000
  71
0
  72
1
  73
2
  1
~
  0
TEXT
  7
KICAD
  8
BLACK
  10
323.8499999999999659
  11
323.8499999999999659
  20
-95.25
  21
-95.25
  40
1.
  41
1.
  50
0.00000000
  51
0.00000000
  71
0
  72
1
  73
2
  1
S17
  0
TEXT
  7
KICAD
  8
BLACK
  10
304.8000000000000114
  11
304.8000000000000114
  20
-108.0124999999999886
  21
-108.0124999999999886
  40
1.
  41
1.
  50
0.00000000
  51
0.00000000
  71
0
  72
1
  73
2
  1
~
  0
TEXT
  7
KICAD
  8
BLACK
  10
304.8000000000000114
  11
304.8000000000000114
  20
-100.0124999999999886
  21
-100.0124999999999886
  40
1.
  41
1.
  50
0.00000000
  51
0.00000000
  71
0
  72
1
  73
2
  1
S16
  0
TEXT
  7
KICAD
  8
BLACK
  10
285.75
  11
285.75
  20
-112.7749999999999915
  21
-112.7749999999999915
  40
1.
  41
1.
  50
0.00000000
  51
0.00000000
  71
0
  72
1
  73
2
  1
~
  0
TEXT
  7
KICAD
  8
BLACK
  10
285.75
  11
285.75
  20
-104.7749999999999915
  21
-104.7749999999999915
  40
1.
  41
1.
  50
0.00000000
  51
0.00000000
  71
0
  72
1
  73
2
  1
S15
  0
TEXT
  7
KICAD
  8
BLACK
  10
381.
  11
381.
  20
-93.7249999999999943
  21
-93.7249999999999943
  40
1.
  41
1.
  50
0.00000000
  51
0.00000000
  71
0
  72
1
  73
2
  1
~
  0
TEXT
  7
KICAD
  8
BLACK
  10
381.
  11
381.
  20
-85.7249999999999943
  21
-85.7249999999999943
  40
1.
  41
1.
  50
0.00000000
  51
0.00000000
  71
0
  72
1
  73
2
  1
S13
  0
TEXT
  7
KICAD
  8
BLACK
  10
361.9499999999999886
  11
361.9499999999999886
  20
-93.7249999999999943
  21
-93.7249999999999943
  40
1.
  41
1.
  50
0.00000000
  51
0.00000000
  71
0
  72
1
  73
2
  1
~
  0
TEXT
  7
KICAD
  8
BLACK
  10
361.9499999999999886
  11
361.9499999999999886
  20
-85.7249999999999943
  21
-85.7249999999999943
  40
1.
  41
1.
  50
0.00000000
  51
0.00000000
  71
0
  72
1
  73
2
  1
S12
  0
TEXT
  7
KICAD
  8
BLACK
  10
342.8999999999999773
  11
342.8999999999999773
  20
-88.9624999999999915
  21
-88.9624999999999915
  40
1.
  41
1.
  50
0.00000000
  51
0.00000000
  71
0
  72
1
  73
2
  1
~
  0
TEXT
  7
KICAD
  8
BLACK
  10
342.8999999999999773
  11
342.8999999999999773
  20
-80.9624999999999915
  21
-80.9624999999999915
  40
1.
  41
1.
  50
0.00000000
  51
0.00000000
  71
0
  72
1
  73
2
  1
S11
  0
TEXT
  7
KICAD
  8
BLACK
  10
323.8499999999999659
  11
323.8499999999999659
  20
-84.2000000000000028
  21
-84.2000000000000028
  40
1.
  41
1.
  50
0.00000000
  51
0.00000000
  71
0
  72
1
  73
2
  1
~
  0
TEXT
  7
KICAD
  8
BLACK
  10
323.8499999999999659
  11
323.8499999999999659
  20
-76.2000000000000028
  21
-76.2000000000000028
  40
1.
  41
1.
  50
0.00000000
  51
0.00000000
  71
0
  72
1
  73
2
  1
S10
  0
TEXT
  7
KICAD
  8
BLACK
  10
304.8000000000000114
  11
304.8000000000000114
  20
-88.9624999999999915
  21
-88.9624999999999915
  40
1.
  41
1.
  50
0.00000000
  51
0.00000000
  71
0
  72
1
  73
2
  1
~
  0
TEXT
  7
KICAD
  8
BLACK
  10
304.8000000000000114
  11
304.8000000000000114
  20
-80.9624999999999915
  21
-80.9624999999999915
  40
1.
  41
1.
  50
0.00000000
  51
0.00000000
  71
0
  72
1
  73
2
  1
S9
  0
TEXT
  7
KICAD
  8
BLACK
  10
285.75
  11
285.75
  20
-93.7249999999999943
  21
-93.7249999999999943
  40
1.
  41
1.
  50
0.00000000
  51
0.00000000
  71
0
  72
1
  73
2
  1
~
  0
TEXT
  7
KICAD
  8
BLACK
  10
285.75
  11
285.75
  20
-85.7249999999999943
  21
-85.7249999999999943
  40
1.
  41
1.
  50
0.00000000
  51
0.00000000
  71
0
  72
1
  73
2
  1
S8
  0
TEXT
  7
KICAD
  8
BLACK
  10
381.
  11
381.
  20
-74.6749999999999972
  21
-74.6749999999999972
  40
1.
  41
1.
  50
0.00000000
  51
0.00000000
  71
0
  72
1
  73
2
  1
~
  0
TEXT
  7
KICAD
  8
BLACK
  10
381.
  11
381.
  20
-66.6749999999999972
  21
-66.6749999999999972
  40
1.
  41
1.
  50
0.00000000
  51
0.00000000
  71
0
  72
1
  73
2
  1
S6
  0
TEXT
  7
KICAD
  8
BLACK
  10
361.9499999999999886
  11
361.9499999999999886
  20
-74.6749999999999972
  21
-74.6749999999999972
  40
1.
  41
1.
  50
0.00000000
  51
0.00000000
  71
0
  72
1
  73
2
  1
~
  0
TEXT
  7
KICAD
  8
BLACK
  10
361.9499999999999886
  11
361.9499999999999886
  20
-66.6749999999999972
  21
-66.6749999999999972
  40
1.
  41
1.
  50
0.00000000
  51
0.00000000
  71
0
  72
1
  73
2
  1
S5
  0
TEXT
  7
KICAD
  8
BLACK
  10
342.8999999999999773
  11
342.8999999999999773
  20
-69.9124999999999943
  21
-69.9124999999999943
  40
1.
  41
1.
  50
0.00000000
  51
0.00000000
  71
0
  72
1
  73
2
  1
~
  0
TEXT
  7
KICAD
  8
BLACK
  10
342.8999999999999773
  11
342.8999999999999773
  20
-61.9124999999999943
  21
-61.9124999999999943
  40
1.
  41
1.
  50
0.00000000
  51
0.00000000
  71
0
  72
1
  73
2
  1
S4
  0
TEXT
  7
KICAD
  8
BLACK
  10
323.8499999999999659
  11
323.8499999999999659
  20
-65.1499999999999915
  21
-65.1499999999999915
  40
1.
  41
1.
  50
0.00000000
  51
0.00000000
  71
0
  72
1
  73
2
  1
~
  0
TEXT
  7
KICAD
  8
BLACK
  10
323.8499999999999659
  11
323.8499999999999659
  20
-57.1499999999999986
  21
-57.1499999999999986
  40
1.
  41
1.
  50
0.00000000
  51
0.00000000
  71
0
  72
1
  73
2
  1
S3
  0
TEXT
  7
KICAD
  8
BLACK
  10
304.8000000000000114
  11
304.8000000000000114
  20
-69.9124999999999943
  21
-69.9124999999999943
  40
1.
  41
1.
  50
0.00000000
  51
0.00000000
  71
0
  72
1
  73
2
  1
~
  0
TEXT
  7
KICAD
  8
BLACK
  10
304.8000000000000114
  11
304.8000000000000114
  20
-61.9124999999999943
  21
-61.9124999999999943
  40
1.
  41
1.
  50
0.00000000
  51
0.00000000
  71
0
  72
1
  73
2
  1
S2
  0
TEXT
  7
KICAD
  8
BLACK
  10
285.75
  11
285.75
  20
-74.6749999999999972
  21
-74.6749999999999972
  40
1.
  41
1.
  50
0.00000000
  51
0.00000000
  71
0
  72
1
  73
2
  1
~
  0
TEXT
  7
KICAD
  8
BLACK
  10
285.75
  11
285.75
  20
-66.6749999999999972
  21
-66.6749999999999972
  40
1.
  41
1.
  50
0.00000000
  51
0.00000000
  71
0
  72
1
  73
2
  1
S1
0
LINE
8
BLACK
6
CONTINUOUS
10
269.8530920000000037
20
-151.8771399999999971
11
276.8530920000000037
21
-164.0014960000000031
0
LINE
8
BLACK
6
CONTINUOUS
10
276.8530920000000037
20
-164.0014960000000031
11
288.9774479999999812
21
-157.0014960000000031
0
LINE
8
BLACK
6
CONTINUOUS
10
288.9774479999999812
20
-157.0014960000000031
11
281.9774479999999812
21
-144.8771399999999971
0
LINE
8
BLACK
6
CONTINUOUS
10
281.9774479999999812
20
-144.8771399999999971
11
269.8530920000000037
21
-151.8771399999999971
0
LINE
8
BLACK
6
CONTINUOUS
10
253.3553079999999795
20
-161.4021400000000028
11
260.3553079999999795
21
-173.5264959999999803
0
LINE
8
BLACK
6
CONTINUOUS
10
260.3553079999999795
20
-173.5264959999999803
11
272.4796640000000139
21
-166.5264959999999803
0
LINE
8
BLACK
6
CONTINUOUS
10
272.4796640000000139
20
-166.5264959999999803
11
265.4796640000000139
21
-154.4021400000000028
0
LINE
8
BLACK
6
CONTINUOUS
10
265.4796640000000139
20
-154.4021400000000028
11
253.3553079999999795
21
-161.4021400000000028
0
LINE
8
BLACK
6
CONTINUOUS
10
395.4312499999999773
20
-135.875
11
395.4312499999999773
21
-149.875
0
LINE
8
BLACK
6
CONTINUOUS
10
395.4312499999999773
20
-149.875
11
409.4312499999999773
21
-149.875
0
LINE
8
BLACK
6
CONTINUOUS
10
409.4312499999999773
20
-149.875
11
409.4312499999999773
21
-135.875
0
LINE
8
BLACK
6
CONTINUOUS
10
409.4312499999999773
20
-135.875
11
395.4312499999999773
21
-135.875
0
LINE
8
BLACK
6
CONTINUOUS
10
395.4312499999999773
20
-116.8249999999999886
11
395.4312499999999773
21
-130.8249999999999886
0
LINE
8
BLACK
6
CONTINUOUS
10
395.4312499999999773
20
-130.8249999999999886
11
409.4312499999999773
21
-130.8249999999999886
0
LINE
8
BLACK
6
CONTINUOUS
10
409.4312499999999773
20
-130.8249999999999886
11
409.4312499999999773
21
-116.8249999999999886
0
LINE
8
BLACK
6
CONTINUOUS
10
409.4312499999999773
20
-116.8249999999999886
11
395.4312499999999773
21
-116.8249999999999886
0
LINE
8
BLACK
6
CONTINUOUS
10
395.4312499999999773
20
-97.7749999999999915
11
395.4312499999999773
21
-111.7749999999999915
0
LINE
8
BLACK
6
CONTINUOUS
10
395.4312499999999773
20
-111.7749999999999915
11
409.4312499999999773
21
-111.7749999999999915
0
LINE
8
BLACK
6
CONTINUOUS
10
409.4312499999999773
20
-111.7749999999999915
11
409.4312499999999773
21
-97.7749999999999915
0
LINE
8
BLACK
6
CONTINUOUS
10
409.4312499999999773
20
-97.7749999999999915
11
395.4312499999999773
21
-97.7749999999999915
0
LINE
8
BLACK
6
CONTINUOUS
10
395.4312499999999773
20
-78.7249999999999943
11
395.4312499999999773
21
-92.7249999999999943
0
LINE
8
BLACK
6
CONTINUOUS
10
395.4312499999999773
20
-92.7249999999999943
11
409.4312499999999773
21
-92.7249999999999943
0
LINE
8
BLACK
6
CONTINUOUS
10
409.4312499999999773
20
-92.7249999999999943
11
409.4312499999999773
21
-78.7249999999999943
0
LINE
8
BLACK
6
CONTINUOUS
10
409.4312499999999773
20
-78.7249999999999943
11
395.4312499999999773
21
-78.7249999999999943
0
LINE
8
BLACK
6
CONTINUOUS
10
395.4312499999999773
20
-59.6749999999999972
11
395.4312499999999773
21
-73.6749999999999972
0
LINE
8
BLACK
6
CONTINUOUS
10
395.4312499999999773
20
-73.6749999999999972
11
409.4312499999999773
21
-73.6749999999999972
0
LINE
8
BLACK
6
CONTINUOUS
10
409.4312499999999773
20
-73.6749999999999972
11
409.4312499999999773
21
-59.6749999999999972
0
LINE
8
BLACK
6
CONTINUOUS
10
409.4312499999999773
20
-59.6749999999999972
11
395.4312499999999773
21
-59.6749999999999972
0
LINE
8
BLACK
6
CONTINUOUS
10
246.9899999999999807
20
-57.3499999999999943
11
267.9900000000000091
21
-57.3499999999999943
0
LINE
8
BLACK
6
CONTINUOUS
10
246.9899999999999807
20
-58.6499999999999986
11
248.289999999999992
21
-57.3499999999999943
0
LINE
8
BLACK
6
CONTINUOUS
10
246.9899999999999807
20
-108.3499999999999943
11
246.9899999999999807
21
-57.3499999999999943
0
LINE
8
BLACK
6
CONTINUOUS
10
267.9900000000000091
20
-57.3499999999999943
11
267.9900000000000091
21
-108.3499999999999943
0
LINE
8
BLACK
6
CONTINUOUS
10
267.9900000000000091
20
-108.3499999999999943
11
246.9899999999999807
21
-108.3499999999999943
0
LINE
8
BLACK
6
CONTINUOUS
10
241.6200240000000008
20
-179.1760319999999922
11
248.6200240000000008
21
-191.3003879999999981
0
LINE
8
BLACK
6
CONTINUOUS
10
248.6200240000000008
20
-191.3003879999999981
11
260.7443799999999783
21
-184.3003879999999981
0
LINE
8
BLACK
6
CONTINUOUS
10
260.7443799999999783
20
-184.3003879999999981
11
253.7443799999999783
21
-172.1760319999999922
0
LINE
8
BLACK
6
CONTINUOUS
10
253.7443799999999783
20
-172.1760319999999922
11
241.6200240000000008
21
-179.1760319999999922
0
LINE
8
BLACK
6
CONTINUOUS
10
241.4490579999999795
20
-140.779910000000001
11
248.4490579999999795
21
-152.9042660000000069
0
LINE
8
BLACK
6
CONTINUOUS
10
248.4490579999999795
20
-152.9042660000000069
11
260.5734140000000139
21
-145.9042660000000069
0
LINE
8
BLACK
6
CONTINUOUS
10
260.5734140000000139
20
-145.9042660000000069
11
253.5734139999999854
21
-133.779910000000001
0
LINE
8
BLACK
6
CONTINUOUS
10
253.5734139999999854
20
-133.779910000000001
11
241.4490579999999795
21
-140.779910000000001
0
LINE
8
BLACK
6
CONTINUOUS
10
232.0950239999999951
20
-162.6782479999999964
11
239.0950239999999951
21
-174.8026040000000023
0
LINE
8
BLACK
6
CONTINUOUS
10
239.0950239999999951
20
-174.8026040000000023
11
251.219380000000001
21
-167.8026040000000023
0
LINE
8
BLACK
6
CONTINUOUS
10
251.219380000000001
20
-167.8026040000000023
11
244.219380000000001
21
-155.6782479999999964
0
LINE
8
BLACK
6
CONTINUOUS
10
244.219380000000001
20
-155.6782479999999964
11
232.0950239999999951
21
-162.6782479999999964
0
LINE
8
BLACK
6
CONTINUOUS
10
374.
20
-135.875
11
374.
21
-149.875
0
LINE
8
BLACK
6
CONTINUOUS
10
374.
20
-149.875
11
388.
21
-149.875
0
LINE
8
BLACK
6
CONTINUOUS
10
388.
20
-149.875
11
388.
21
-135.875
0
LINE
8
BLACK
6
CONTINUOUS
10
388.
20
-135.875
11
374.
21
-135.875
0
LINE
8
BLACK
6
CONTINUOUS
10
354.9499999999999886
20
-135.875
11
354.9499999999999886
21
-149.875
0
LINE
8
BLACK
6
CONTINUOUS
10
354.9499999999999886
20
-149.875
11
368.9499999999999886
21
-149.875
0
LINE
8
BLACK
6
CONTINUOUS
10
368.9499999999999886
20
-149.875
11
368.9499999999999886
21
-135.875
0
LINE
8
BLACK
6
CONTINUOUS
10
368.9499999999999886
20
-135.875
11
354.9499999999999886
21
-135.875
0
LINE
8
BLACK
6
CONTINUOUS
10
335.8999999999999773
20
-131.1124999999999829
11
335.8999999999999773
21
-145.1124999999999829
0
LINE
8
BLACK
6
CONTINUOUS
10
335.8999999999999773
20
-145.1124999999999829
11
349.8999999999999773
21
-145.1124999999999829
0
LINE
8
BLACK
6
CONTINUOUS
10
349.8999999999999773
20
-145.1124999999999829
11
349.8999999999999773
21
-131.1124999999999829
0
LINE
8
BLACK
6
CONTINUOUS
10
349.8999999999999773
20
-131.1124999999999829
11
335.8999999999999773
21
-131.1124999999999829
0
LINE
8
BLACK
6
CONTINUOUS
10
316.8499999999999659
20
-126.3499999999999943
11
316.8499999999999659
21
-140.3499999999999943
0
LINE
8
BLACK
6
CONTINUOUS
10
316.8499999999999659
20
-140.3499999999999943
11
330.8499999999999659
21
-140.3499999999999943
0
LINE
8
BLACK
6
CONTINUOUS
10
330.8499999999999659
20
-140.3499999999999943
11
330.8499999999999659
21
-126.3499999999999943
0
LINE
8
BLACK
6
CONTINUOUS
10
330.8499999999999659
20
-126.3499999999999943
11
316.8499999999999659
21
-126.3499999999999943
0
LINE
8
BLACK
6
CONTINUOUS
10
297.8000000000000114
20
-131.1124999999999829
11
297.8000000000000114
21
-145.1124999999999829
0
LINE
8
BLACK
6
CONTINUOUS
10
297.8000000000000114
20
-145.1124999999999829
11
311.8000000000000114
21
-145.1124999999999829
0
LINE
8
BLACK
6
CONTINUOUS
10
311.8000000000000114
20
-145.1124999999999829
11
311.8000000000000114
21
-131.1124999999999829
0
LINE
8
BLACK
6
CONTINUOUS
10
311.8000000000000114
20
-131.1124999999999829
11
297.8000000000000114
21
-131.1124999999999829
0
LINE
8
BLACK
6
CONTINUOUS
10
222.5700239999999894
20
-146.1804640000000006
11
229.5700239999999894
21
-158.3048200000000065
0
LINE
8
BLACK
6
CONTINUOUS
10
229.5700239999999894
20
-158.3048200000000065
11
241.6943799999999953
21
-151.3048200000000065
0
LINE
8
BLACK
6
CONTINUOUS
10
241.6943799999999953
20
-151.3048200000000065
11
234.6943799999999953
21
-139.1804640000000006
0
LINE
8
BLACK
6
CONTINUOUS
10
234.6943799999999953
20
-139.1804640000000006
11
222.5700239999999894
21
-146.1804640000000006
0
LINE
8
BLACK
6
CONTINUOUS
10
374.
20
-116.8249999999999886
11
374.
21
-130.8249999999999886
0
LINE
8
BLACK
6
CONTINUOUS
10
374.
20
-130.8249999999999886
11
388.
21
-130.8249999999999886
0
LINE
8
BLACK
6
CONTINUOUS
10
388.
20
-130.8249999999999886
11
388.
21
-116.8249999999999886
0
LINE
8
BLACK
6
CONTINUOUS
10
388.
20
-116.8249999999999886
11
374.
21
-116.8249999999999886
0
LINE
8
BLACK
6
CONTINUOUS
10
354.9499999999999886
20
-116.8249999999999886
11
354.9499999999999886
21
-130.8249999999999886
0
LINE
8
BLACK
6
CONTINUOUS
10
354.9499999999999886
20
-130.8249999999999886
11
368.9499999999999886
21
-130.8249999999999886
0
LINE
8
BLACK
6
CONTINUOUS
10
368.9499999999999886
20
-130.8249999999999886
11
368.9499999999999886
21
-116.8249999999999886
0
LINE
8
BLACK
6
CONTINUOUS
10
368.9499999999999886
20
-116.8249999999999886
11
354.9499999999999886
21
-116.8249999999999886
0
LINE
8
BLACK
6
CONTINUOUS
10
335.8999999999999773
20
-112.0625
11
335.8999999999999773
21
-126.0625
0
LINE
8
BLACK
6
CONTINUOUS
10
335.8999999999999773
20
-126.0625
11
349.8999999999999773
21
-126.0625
0
LINE
8
BLACK
6
CONTINUOUS
10
349.8999999999999773
20
-126.0625
11
349.8999999999999773
21
-112.0625
0
LINE
8
BLACK
6
CONTINUOUS
10
349.8999999999999773
20
-112.0625
11
335.8999999999999773
21
-112.0625
0
LINE
8
BLACK
6
CONTINUOUS
10
316.8499999999999659
20
-107.2999999999999972
11
316.8499999999999659
21
-121.2999999999999972
0
LINE
8
BLACK
6
CONTINUOUS
10
316.8499999999999659
20
-121.2999999999999972
11
330.8499999999999659
21
-121.2999999999999972
0
LINE
8
BLACK
6
CONTINUOUS
10
330.8499999999999659
20
-121.2999999999999972
11
330.8499999999999659
21
-107.2999999999999972
0
LINE
8
BLACK
6
CONTINUOUS
10
330.8499999999999659
20
-107.2999999999999972
11
316.8499999999999659
21
-107.2999999999999972
0
LINE
8
BLACK
6
CONTINUOUS
10
297.8000000000000114
20
-112.0625
11
297.8000000000000114
21
-126.0625
0
LINE
8
BLACK
6
CONTINUOUS
10
297.8000000000000114
20
-126.0625
11
311.8000000000000114
21
-126.0625
0
LINE
8
BLACK
6
CONTINUOUS
10
311.8000000000000114
20
-126.0625
11
311.8000000000000114
21
-112.0625
0
LINE
8
BLACK
6
CONTINUOUS
10
311.8000000000000114
20
-112.0625
11
297.8000000000000114
21
-112.0625
0
LINE
8
BLACK
6
CONTINUOUS
10
278.75
20
-116.8249999999999886
11
278.75
21
-130.8249999999999886
0
LINE
8
BLACK
6
CONTINUOUS
10
278.75
20
-130.8249999999999886
11
292.75
21
-130.8249999999999886
0
LINE
8
BLACK
6
CONTINUOUS
10
292.75
20
-130.8249999999999886
11
292.75
21
-116.8249999999999886
0
LINE
8
BLACK
6
CONTINUOUS
10
292.75
20
-116.8249999999999886
11
278.75
21
-116.8249999999999886
0
LINE
8
BLACK
6
CONTINUOUS
10
374.
20
-97.7749999999999915
11
374.
21
-111.7749999999999915
0
LINE
8
BLACK
6
CONTINUOUS
10
374.
20
-111.7749999999999915
11
388.
21
-111.7749999999999915
0
LINE
8
BLACK
6
CONTINUOUS
10
388.
20
-111.7749999999999915
11
388.
21
-97.7749999999999915
0
LINE
8
BLACK
6
CONTINUOUS
10
388.
20
-97.7749999999999915
11
374.
21
-97.7749999999999915
0
LINE
8
BLACK
6
CONTINUOUS
10
354.9499999999999886
20
-97.7749999999999915
11
354.9499999999999886
21
-111.7749999999999915
0
LINE
8
BLACK
6
CONTINUOUS
10
354.9499999999999886
20
-111.7749999999999915
11
368.9499999999999886
21
-111.7749999999999915
0
LINE
8
BLACK
6
CONTINUOUS
10
368.9499999999999886
20
-111.7749999999999915
11
368.9499999999999886
21
-97.7749999999999915
0
LINE
8
BLACK
6
CONTINUOUS
10
368.9499999999999886
20
-97.7749999999999915
11
354.9499999999999886
21
-97.7749999999999915
0
LINE
8
BLACK
6
CONTINUOUS
10
335.8999999999999773
20
-93.0125000000000028
11
335.8999999999999773
21
-107.0124999999999886
0
LINE
8
BLACK
6
CONTINUOUS
10
335.8999999999999773
20
-107.0124999999999886
11
349.8999999999999773
21
-107.0124999999999886
0
LINE
8
BLACK
6
CONTINUOUS
10
349.8999999999999773
20
-107.0124999999999886
11
349.8999999999999773
21
-93.0125000000000028
0
LINE
8
BLACK
6
CONTINUOUS
10
349.8999999999999773
20
-93.0125000000000028
11
335.8999999999999773
21
-93.0125000000000028
0
LINE
8
BLACK
6
CONTINUOUS
10
316.8499999999999659
20
-88.25
11
316.8499999999999659
21
-102.25
0
LINE
8
BLACK
6
CONTINUOUS
10
316.8499999999999659
20
-102.25
11
330.8499999999999659
21
-102.25
0
LINE
8
BLACK
6
CONTINUOUS
10
330.8499999999999659
20
-102.25
11
330.8499999999999659
21
-88.25
0
LINE
8
BLACK
6
CONTINUOUS
10
330.8499999999999659
20
-88.25
11
316.8499999999999659
21
-88.25
0
LINE
8
BLACK
6
CONTINUOUS
10
297.8000000000000114
20
-93.0125000000000028
11
297.8000000000000114
21
-107.0124999999999886
0
LINE
8
BLACK
6
CONTINUOUS
10
297.8000000000000114
20
-107.0124999999999886
11
311.8000000000000114
21
-107.0124999999999886
0
LINE
8
BLACK
6
CONTINUOUS
10
311.8000000000000114
20
-107.0124999999999886
11
311.8000000000000114
21
-93.0125000000000028
0
LINE
8
BLACK
6
CONTINUOUS
10
311.8000000000000114
20
-93.0125000000000028
11
297.8000000000000114
21
-93.0125000000000028
0
LINE
8
BLACK
6
CONTINUOUS
10
278.75
20
-97.7749999999999915
11
278.75
21
-111.7749999999999915
0
LINE
8
BLACK
6
CONTINUOUS
10
278.75
20
-111.7749999999999915
11
292.75
21
-111.7749999999999915
0
LINE
8
BLACK
6
CONTINUOUS
10
292.75
20
-111.7749999999999915
11
292.75
21
-97.7749999999999915
0
LINE
8
BLACK
6
CONTINUOUS
10
292.75
20
-97.7749999999999915
11
278.75
21
-97.7749999999999915
0
LINE
8
BLACK
6
CONTINUOUS
10
374.
20
-78.7249999999999943
11
374.
21
-92.7249999999999943
0
LINE
8
BLACK
6
CONTINUOUS
10
374.
20
-92.7249999999999943
11
388.
21
-92.7249999999999943
0
LINE
8
BLACK
6
CONTINUOUS
10
388.
20
-92.7249999999999943
11
388.
21
-78.7249999999999943
0
LINE
8
BLACK
6
CONTINUOUS
10
388.
20
-78.7249999999999943
11
374.
21
-78.7249999999999943
0
LINE
8
BLACK
6
CONTINUOUS
10
354.9499999999999886
20
-78.7249999999999943
11
354.9499999999999886
21
-92.7249999999999943
0
LINE
8
BLACK
6
CONTINUOUS
10
354.9499999999999886
20
-92.7249999999999943
11
368.9499999999999886
21
-92.7249999999999943
0
LINE
8
BLACK
6
CONTINUOUS
10
368.9499999999999886
20
-92.7249999999999943
11
368.9499999999999886
21
-78.7249999999999943
0
LINE
8
BLACK
6
CONTINUOUS
10
368.9499999999999886
20
-78.7249999999999943
11
354.9499999999999886
21
-78.7249999999999943
0
LINE
8
BLACK
6
CONTINUOUS
10
335.8999999999999773
20
-73.9624999999999915
11
335.8999999999999773
21
-87.9624999999999915
0
LINE
8
BLACK
6
CONTINUOUS
10
335.8999999999999773
20
-87.9624999999999915
11
349.8999999999999773
21
-87.9624999999999915
0
LINE
8
BLACK
6
CONTINUOUS
10
349.8999999999999773
20
-87.9624999999999915
11
349.8999999999999773
21
-73.9624999999999915
0
LINE
8
BLACK
6
CONTINUOUS
10
349.8999999999999773
20
-73.9624999999999915
11
335.8999999999999773
21
-73.9624999999999915
0
LINE
8
BLACK
6
CONTINUOUS
10
316.8499999999999659
20
-69.2000000000000028
11
316.8499999999999659
21
-83.2000000000000028
0
LINE
8
BLACK
6
CONTINUOUS
10
316.8499999999999659
20
-83.2000000000000028
11
330.8499999999999659
21
-83.2000000000000028
0
LINE
8
BLACK
6
CONTINUOUS
10
330.8499999999999659
20
-83.2000000000000028
11
330.8499999999999659
21
-69.2000000000000028
0
LINE
8
BLACK
6
CONTINUOUS
10
330.8499999999999659
20
-69.2000000000000028
11
316.8499999999999659
21
-69.2000000000000028
0
LINE
8
BLACK
6
CONTINUOUS
10
297.8000000000000114
20
-73.9624999999999915
11
297.8000000000000114
21
-87.9624999999999915
0
LINE
8
BLACK
6
CONTINUOUS
10
297.8000000000000114
20
-87.9624999999999915
11
311.8000000000000114
21
-87.9624999999999915
0
LINE
8
BLACK
6
CONTINUOUS
10
311.8000000000000114
20
-87.9624999999999915
11
311.8000000000000114
21
-73.9624999999999915
0
LINE
8
BLACK
6
CONTINUOUS
10
311.8000000000000114
20
-73.9624999999999915
11
297.8000000000000114
21
-73.9624999999999915
0
LINE
8
BLACK
6
CONTINUOUS
10
278.75
20
-78.7249999999999943
11
278.75
21
-92.7249999999999943
0
LINE
8
BLACK
6
CONTINUOUS
10
278.75
20
-92.7249999999999943
11
292.75
21
-92.7249999999999943
0
LINE
8
BLACK
6
CONTINUOUS
10
292.75
20
-92.7249999999999943
11
292.75
21
-78.7249999999999943
0
LINE
8
BLACK
6
CONTINUOUS
10
292.75
20
-78.7249999999999943
11
278.75
21
-78.7249999999999943
0
LINE
8
BLACK
6
CONTINUOUS
10
374.
20
-59.6749999999999972
11
374.
21
-73.6749999999999972
0
LINE
8
BLACK
6
CONTINUOUS
10
374.
20
-73.6749999999999972
11
388.
21
-73.6749999999999972
0
LINE
8
BLACK
6
CONTINUOUS
10
388.
20
-73.6749999999999972
11
388.
21
-59.6749999999999972
0
LINE
8
BLACK
6
CONTINUOUS
10
388.
20
-59.6749999999999972
11
374.
21
-59.6749999999999972
0
LINE
8
BLACK
6
CONTINUOUS
10
354.9499999999999886
20
-59.6749999999999972
11
354.9499999999999886
21
-73.6749999999999972
0
LINE
8
BLACK
6
CONTINUOUS
10
354.9499999999999886
20
-73.6749999999999972
11
368.9499999999999886
21
-73.6749999999999972
0
LINE
8
BLACK
6
CONTINUOUS
10
368.9499999999999886
20
-73.6749999999999972
11
368.9499999999999886
21
-59.6749999999999972
0
LINE
8
BLACK
6
CONTINUOUS
10
368.9499999999999886
20
-59.6749999999999972
11
354.9499999999999886
21
-59.6749999999999972
0
LINE
8
BLACK
6
CONTINUOUS
10
335.8999999999999773
20
-54.9124999999999943
11
335.8999999999999773
21
-68.9124999999999943
0
LINE
8
BLACK
6
CONTINUOUS
10
335.8999999999999773
20
-68.9124999999999943
11
349.8999999999999773
21
-68.9124999999999943
0
LINE
8
BLACK
6
CONTINUOUS
10
349.8999999999999773
20
-68.9124999999999943
11
349.8999999999999773
21
-54.9124999999999943
0
LINE
8
BLACK
6
CONTINUOUS
10
349.8999999999999773
20
-54.9124999999999943
11
335.8999999999999773
21
-54.9124999999999943
0
LINE
8
BLACK
6
CONTINUOUS
10
316.8499999999999659
20
-50.1499999999999986
11
316.8499999999999659
21
-64.1499999999999915
0
LINE
8
BLACK
6
CONTINUOUS
10
316.8499999999999659
20
-64.1499999999999915
11
330.8499999999999659
21
-64.1499999999999915
0
LINE
8
BLACK
6
CONTINUOUS
10
330.8499999999999659
20
-64.1499999999999915
11
330.8499999999999659
21
-50.1499999999999986
0
LINE
8
BLACK
6
CONTINUOUS
10
330.8499999999999659
20
-50.1499999999999986
11
316.8499999999999659
21
-50.1499999999999986
0
LINE
8
BLACK
6
CONTINUOUS
10
297.8000000000000114
20
-54.9124999999999943
11
297.8000000000000114
21
-68.9124999999999943
0
LINE
8
BLACK
6
CONTINUOUS
10
297.8000000000000114
20
-68.9124999999999943
11
311.8000000000000114
21
-68.9124999999999943
0
LINE
8
BLACK
6
CONTINUOUS
10
311.8000000000000114
20
-68.9124999999999943
11
311.8000000000000114
21
-54.9124999999999943
0
LINE
8
BLACK
6
CONTINUOUS
10
311.8000000000000114
20
-54.9124999999999943
11
297.8000000000000114
21
-54.9124999999999943
0
LINE
8
BLACK
6
CONTINUOUS
10
278.75
20
-59.6749999999999972
11
278.75
21
-73.6749999999999972
0
LINE
8
BLACK
6
CONTINUOUS
10
278.75
20
-73.6749999999999972
11
292.75
21
-73.6749999999999972
0
LINE
8
BLACK
6
CONTINUOUS
10
292.75
20
-73.6749999999999972
11
292.75
21
-59.6749999999999972
0
LINE
8
BLACK
6
CONTINUOUS
10
292.75
20
-59.6749999999999972
11
278.75
21
-59.6749999999999972
  0
ENDSEC
  0
EOF
