  0
SECTION
  2
HEADER
  9
$ANGBASE
  50
0.0
  9
$ANGDIR
  70
1
  9
$MEASUREMENT
  70
1
  0
ENDSEC
  0
SECTION
  2
TABLES
  0
TABLE
  2
LTYPE
  70
4
  0
LTYPE
  5
40F
  2
CONTINUOUS
  70
0
  3
Solid line
  72
65
  73
0
  40
0.0
  0
LTYPE
  5
410
  2
DASHDOT
 70
0
  3
Dash Dot ____ _ ____ _
 72
65
 73
4
 40
2.0
 49
1.25
 49
-0.25
 49
0.25
 49
-0.25
  0
LTYPE
  5
411
  2
DASHED
 70
0
  3
Dashed __ __ __ __ __
 72
65
 73
2
 40
0.75
 49
0.5
 49
-0.25
  0
LTYPE
  5
43B
  2
DOTTED
 70
0
  3
Dotted .  .  .  .
 72
65
 73
2
 40
0.2
 49
0.0
 49
-0.2
  0
ENDTAB
  0
TABLE
  2
STYLE
  70
4
  0
STYLE
  2
KICAD
  70
0
  40
0
  41
1
  42
1
  50
0
  71
0
  3
isocp.shx
  0
STYLE
  2
KICADB
  70
0
  40
0
  41
1
  42
1
  50
0
  71
0
  3
isocp.shx
  0
STYLE
  2
KICADI
  70
0
  40
0
  41
1
  42
1
  50
15
  71
0
  3
isocp.shx
  0
STYLE
  2
KICADBI
  70
0
  40
0
  41
1
  42
1
  50
15
  71
0
  3
isocp.shx
  0
ENDTAB
  0
TABLE
  2
LAYER
  70
1
  0
LAYER
  2
BLACK
  70
0
  62
7
  6
CONTINUOUS
  0
ENDTAB
  0
ENDSEC
  0
SECTION
  2
ENTITIES
0
LINE
8
BLACK
6
CONTINUOUS
10
352.5
20
-153.0999999999999943
11
380.
21
-153.0999999999999943
0
LINE
8
BLACK
6
CONTINUOUS
10
333.
20
-148.4000000000000057
11
352.5
21
-153.0999999999999943
0
LINE
8
BLACK
6
CONTINUOUS
10
314.
20
-148.4000000000000057
11
333.
21
-148.4000000000000057
0
LINE
8
BLACK
6
CONTINUOUS
10
295.6999999999999886
20
-163.1999999999999886
11
314.
21
-148.4000000000000057
0
LINE
8
BLACK
6
CONTINUOUS
10
265.5
20
-185.4000000000000057
11
295.6999999999999886
21
-163.1999999999999886
0
LINE
8
BLACK
6
CONTINUOUS
10
247.2999999999999829
20
-195.8999999999999773
11
265.5
21
-185.4000000000000057
0
LINE
8
BLACK
6
CONTINUOUS
10
242.5999999999999943
20
-191.2999999999999829
11
247.2999999999999829
21
-195.8999999999999773
0
LINE
8
BLACK
6
CONTINUOUS
10
218.5999999999999943
20
-149.5
11
242.5999999999999943
21
-191.2999999999999829
0
LINE
8
BLACK
6
CONTINUOUS
10
217.8999999999999773
20
-144.7999999999999829
11
218.5999999999999943
21
-149.5
0
LINE
8
BLACK
6
CONTINUOUS
10
235.2999999999999829
20
-135.0999999999999943
11
217.8999999999999773
21
-144.7999999999999829
0
LINE
8
BLACK
6
CONTINUOUS
10
243.0999999999999943
20
-118.0999999999999943
11
235.2999999999999829
21
-135.0999999999999943
0
LINE
8
BLACK
6
CONTINUOUS
10
243.1999999999999886
20
-56.5
11
245.5999999999999943
21
-56.5
0
LINE
8
BLACK
6
CONTINUOUS
10
243.0999999999999943
20
-118.0999999999999943
11
243.1999999999999886
21
-56.5
0
LINE
8
BLACK
6
CONTINUOUS
10
273.5
20
-56.5
11
245.5999999999999943
21
-56.5
0
LINE
8
BLACK
6
CONTINUOUS
10
273.8999999999999773
20
-56.3999999999999986
11
273.5
21
-56.5
0
LINE
8
BLACK
6
CONTINUOUS
10
274.3000000000000114
20
-56.2999999999999972
11
273.8999999999999773
21
-56.3999999999999986
0
LINE
8
BLACK
6
CONTINUOUS
10
276.0999999999999659
20
-55.8999999999999986
11
274.3000000000000114
21
-56.2999999999999972
0
LINE
8
BLACK
6
CONTINUOUS
10
295.0999999999999659
20
-51.5999999999999943
11
276.0999999999999659
21
-55.8999999999999986
0
LINE
8
BLACK
6
CONTINUOUS
10
314.1999999999999886
20
-46.5
11
295.0999999999999659
21
-51.5999999999999943
0
LINE
8
BLACK
6
CONTINUOUS
10
333.3000000000000114
20
-46.5
11
314.1999999999999886
21
-46.5
0
LINE
8
BLACK
6
CONTINUOUS
10
352.3999999999999773
20
-51.
11
333.3000000000000114
21
-46.5
0
LINE
8
BLACK
6
CONTINUOUS
10
415.0999999999999659
20
-56.0999999999999943
11
352.3999999999999773
21
-51.
0
LINE
8
BLACK
6
CONTINUOUS
10
414.8999999999999773
20
-153.
11
415.0999999999999659
21
-56.0999999999999943
0
LINE
8
BLACK
6
CONTINUOUS
10
380.
20
-153.0999999999999943
11
414.8999999999999773
21
-153.
  0
ENDSEC
  0
EOF
